<svg width="466" height="629" viewBox="0 0 466 629" fill="none" xmlns="http://www.w3.org/2000/svg">
<g clip-path="url(#clip0)">
<rect x="2" y="2" width="462" height="625" rx="2" fill="white"/>
<path d="M83.3174 -128.488C114.812 -116.89 128.408 -57.8763 150.89 -14.3595C173.373 29.1573 202.945 48.8799 198.088 75.5168C192.832 101.983 139.132 115.547 111.293 142.939C83.0555 170.161 86.5855 212.004 63.9349 220.198C41.3851 228.67 6.37158 223.415 -29.8709 218.259C-66.3107 213.49 -108.388 216.428 -134.732 199.503C-161.177 182.3 -171.889 145.233 -172.456 107.331C-173.421 69.2575 -164.14 30.6273 -141.783 1.12435C-119.426 -28.3786 -83.5945 -48.5836 -40.732 -76.371C2.0297 -104.437 51.5245 -139.977 83.3174 -128.488Z" fill="#EEF5FE"/>
<path d="M386.158 775.55C354.663 763.952 341.067 704.938 318.585 661.422C296.103 617.905 188.9 596.5 229.9 549.5C270.9 502.5 330.343 531.515 358.182 504.123C386.42 476.902 382.89 435.058 405.54 426.864C428.09 418.392 463.104 423.647 499.346 428.803C535.786 433.572 577.863 430.634 604.207 447.559C630.652 464.762 641.365 501.829 641.931 539.731C642.896 577.805 633.615 616.435 611.258 645.938C588.901 675.441 553.07 695.646 510.207 723.433C467.445 751.499 417.951 787.039 386.158 775.55Z" fill="#EEF5FE"/>
<path d="M254.181 385.204C252.283 385.096 249.492 385.069 246.076 385.204C237.566 385.526 229.19 387.128 220.679 387.372C218.266 387.453 215.855 387.801 214.092 387.101C212.004 386.135 209.992 385.012 208.075 383.74C200.079 378.725 194.115 374.931 190.755 373.278C187.394 371.625 186.851 371.787 189.833 374.117C192.814 376.448 198.615 380.813 205.852 385.746C207.722 386.966 209.484 388.215 211.734 389.405C212.701 389.898 213.732 390.254 214.797 390.462L213.116 423.667C213.102 423.954 213.203 424.236 213.396 424.449C213.589 424.662 213.859 424.79 214.147 424.804C214.434 424.819 214.716 424.718 214.929 424.525C215.142 424.332 215.27 424.062 215.285 423.774L216.965 390.624C217.833 390.624 218.646 390.597 219.459 390.569C230.952 390.109 242.554 388.101 253.937 386.423C257.596 385.854 258.009 385.421 254.181 385.204Z" fill="#1C2D33"/>
<path d="M256.594 232.898L264.215 231.814C263.418 231.164 262.48 230.709 261.477 230.485C259.277 229.753 256.594 232.898 256.594 232.898Z" fill="#1C2D33"/>
<path d="M242.767 230.16L249.219 232.274C249.221 232.248 246.266 227.26 242.767 230.16Z" fill="#1C2D33"/>
<path d="M249.14 227.151C248.679 222.107 242.906 224.146 242.255 225.28C241.605 226.415 242.933 227.124 243.313 226.826C247.705 223.625 249.275 228.777 249.14 227.151Z" fill="#1C2D33"/>
<path d="M265.051 227.775C264.807 226.446 259.955 222.543 257.813 227.178C257.136 228.669 260.416 224.305 263.502 228.886C263.777 229.319 265.294 229.099 265.051 227.775Z" fill="#1C2D33"/>
<path d="M251.661 241.083C252.854 241.273 252.827 239.295 252.393 239.05C251.932 238.78 249.682 238.101 249.547 237.858C249.411 237.643 252.203 232.491 251.579 231.542C251.579 231.542 247.676 236.557 247.595 237.722C247.515 238.888 250.469 240.893 251.661 241.083Z" fill="#1C2D33"/>
<path d="M256.35 246.206C256.454 246.061 256.506 245.885 256.499 245.707C256.491 245.529 256.425 245.358 256.31 245.221C256.195 245.085 256.038 244.991 255.864 244.953C255.69 244.915 255.508 244.937 255.347 245.014C251.606 248.429 249.98 244.2 250.17 245.55C250.766 249.838 255.807 247.263 256.35 246.206Z" fill="#1C2D33"/>
<path d="M237.268 241.95C238.785 247.589 242.174 252.413 248.299 254.771C251.374 255.942 254.7 256.288 257.95 255.775C259.992 255.468 261.959 254.778 263.746 253.742C264.965 253.01 265.535 252.413 265.48 252.224C265.426 252.01 264.803 252.17 263.502 252.546C261.673 253.079 259.791 253.416 257.891 253.549C255.48 253.676 253.069 253.305 250.808 252.461C248.546 251.617 246.482 250.318 244.744 248.643C239.106 243.169 239.079 235.28 239.056 227.961C239.056 225.413 239.083 223.381 239.083 221.943C239.083 219.125 238.703 218.718 237.917 221.537C236.183 227.747 235.478 235.418 237.268 241.95Z" fill="#1C2D33"/>
<path d="M305.953 280.495C304.456 279.04 302.822 277.733 301.074 276.592C298.63 275.041 296.054 273.707 293.376 272.607C290.174 271.284 286.876 270.207 283.51 269.387C280.233 268.583 276.912 267.977 273.562 267.571C273.318 261.989 273.047 256.268 272.722 250.711C272.507 247.296 272.293 244.205 272.125 241.495C273.296 241.282 274.447 240.973 275.567 240.573C279.308 238.785 278.657 232.523 274.158 232.416C272.966 232.416 272.614 232.876 272.83 232.958C273.606 233.09 274.351 233.366 275.025 233.772C275.397 234.006 275.708 234.324 275.933 234.701C276.159 235.077 276.293 235.502 276.324 235.94C276.355 236.378 276.283 236.817 276.114 237.222C275.944 237.627 275.681 237.986 275.347 238.271C274.02 239.355 272.068 238.813 270.55 239.41L269.602 239.789L269.629 240.9C269.736 248.707 270.058 258.627 270.523 268.711C268.788 269.768 264.727 271.801 260.277 271.096C256.97 270.58 254.07 268.627 251.658 265.268C251.909 263.908 252.053 262.531 252.087 261.148C252.222 258.572 251.843 258.193 250.948 260.688C250.758 261.224 250.026 264.725 249.457 264.699C249.211 264.678 248.967 264.642 248.725 264.591C246.504 264.32 244.254 264.402 242.058 264.835C235.566 265.904 229.212 267.686 223.111 270.148C220.461 271.183 217.88 272.387 215.383 273.753C213.752 274.628 212.217 275.672 210.802 276.866C208.933 278.709 209.123 279.142 211.291 277.978C212.43 277.463 214.081 276.676 216.197 275.809C224.554 272.398 233.187 269.705 242.001 267.759C244.036 267.272 246.116 266.999 248.208 266.945C248.841 267.009 249.48 266.982 250.106 266.865C250.133 266.865 253.793 270.55 254.362 270.902C256.053 271.98 257.942 272.709 259.918 273.049C264.046 273.7 268.268 272.791 271.763 270.501L271.927 270.529C273.96 270.719 276.073 271.016 278.134 271.369C287.58 272.994 296.653 276.318 304.913 281.181C305.754 281.777 306.404 282.293 306.893 282.618C307.381 282.943 307.678 283.078 307.787 283.047C307.986 282.988 307.416 282.176 305.953 280.495Z" fill="#1C2D33"/>
<path d="M240.791 216.011C241.659 218.613 242.147 218.802 242.011 216.038C241.796 211.185 241.333 205.9 244.909 202.025C246.062 200.753 247.561 199.845 249.222 199.412C250.883 198.978 252.635 199.037 254.263 199.583C257.841 200.992 260.036 204.489 263.75 205.79C265.125 206.288 266.571 206.563 268.033 206.603C269.058 206.687 270.089 206.565 271.066 206.244C272.043 205.922 272.946 205.409 273.721 204.733C274.725 203.675 274.67 202.835 274.535 202.754C274.345 202.618 274.046 203.106 273.126 203.675C271.675 204.456 270.003 204.724 268.381 204.434C261.578 203.485 258.109 195.761 250.979 195.977C249.175 196.056 247.415 196.555 245.838 197.436C244.262 198.316 242.913 199.552 241.899 201.047C238.894 205.385 239.192 211.185 240.791 216.011Z" fill="#1C2D33"/>
<path d="M268.276 212.379C266.487 211.592 265.271 210.075 263.885 208.774C261.337 206.361 258.003 205.629 254.86 207.445C253.236 208.455 251.977 209.956 251.265 211.73C250.553 213.505 250.426 215.46 250.902 217.312C251.146 218.261 251.439 218.748 251.633 218.775C251.848 218.803 251.955 218.346 252.121 217.447C252.551 214.737 253.287 211.866 255.754 210.291C256.32 209.911 256.964 209.66 257.638 209.557C258.313 209.454 259.002 209.501 259.656 209.695C262.447 210.617 263.912 213.788 266.732 214.899C268.874 215.844 271.275 216.025 273.534 215.414C274.252 215.21 274.918 214.858 275.492 214.382C276.066 213.906 276.535 213.316 276.869 212.649C277.275 211.729 277.113 211.159 276.95 211.077C276.76 210.97 276.52 211.322 275.974 211.837C275.207 212.572 274.233 213.055 273.184 213.218C271.502 213.384 269.807 213.094 268.276 212.379Z" fill="#1C2D33"/>
<path d="M273.86 220.456C272.932 219.615 271.857 218.954 270.689 218.504C269.225 217.996 267.627 218.034 266.19 218.612C265.589 218.845 265.063 219.239 264.671 219.751C264.472 220.004 264.334 220.299 264.269 220.614C264.203 220.929 264.211 221.255 264.292 221.567C264.346 221.81 264.536 222.054 264.779 221.996C265.101 221.941 265.43 221.399 265.701 221.209C266.031 220.99 266.399 220.834 266.785 220.749C269.659 220.207 271.15 222.457 273.074 224.109C274.336 225.188 275.816 225.983 277.411 226.441C278.415 226.773 279.485 226.851 280.526 226.666C281.567 226.482 282.546 226.041 283.374 225.383C284.4 224.615 285.128 223.515 285.435 222.271C285.649 220.943 283.699 222.593 283.428 222.759C282.512 223.45 281.426 223.881 280.285 224.005C277.737 224.061 275.649 221.947 273.86 220.456Z" fill="#1C2D33"/>
<path d="M343.224 255.313C342.902 255.178 342.627 255.26 342.492 255.099C342.355 254.991 342.329 254.448 343.142 254.096C343.629 253.908 344.167 253.898 344.66 254.069C345.387 254.288 346.007 254.771 346.394 255.424C346.839 256.173 347.134 257.002 347.262 257.864C347.443 258.818 347.507 259.792 347.452 260.762C347.408 261.402 347.243 262.028 346.964 262.606C346.611 263.302 346.04 263.864 345.337 264.205C344.255 264.609 343.105 264.802 341.95 264.774C341.877 264.775 341.805 264.784 341.735 264.801C341.955 264.776 342.158 264.669 342.304 264.502C342.841 263.798 342.575 263.663 342.656 263.966C342.684 264.454 342.711 264.914 342.738 265.403C342.764 266.352 342.792 267.273 342.764 268.14C342.792 270.819 342.463 273.49 341.789 276.082C341.274 277.573 340.868 277.356 340.596 275.838C340.325 274.319 340.167 271.528 339.864 267.815C339.783 266.894 339.702 265.945 339.621 264.996L339.566 264.291C339.49 263.857 339.518 263.411 339.647 262.99C339.74 262.728 339.887 262.489 340.079 262.288C340.27 262.087 340.502 261.929 340.759 261.824C341.017 261.717 341.293 261.662 341.572 261.662C341.87 261.635 342.141 261.607 342.386 261.607C343.415 261.607 344.012 261.5 344.12 261.337C344.282 261.255 344.472 260.822 344.549 260.117C344.613 259.387 344.622 258.653 344.576 257.922C344.575 257.397 344.493 256.876 344.333 256.376C344.254 256.119 344.11 255.887 343.916 255.701C343.722 255.515 343.484 255.381 343.224 255.313Z" fill="#1D201F"/>
<path d="M321.621 262.849C322.623 263.012 322.597 261.358 322.217 261.142C321.409 260.857 320.621 260.522 319.855 260.139C319.748 259.949 322.078 255.667 321.536 254.88C321.536 254.88 318.283 259.054 318.229 260.032C318.151 261.006 320.617 262.686 321.621 262.849Z" fill="#1C2D33"/>
<path d="M325.521 267.105C325.609 266.984 325.654 266.838 325.648 266.689C325.642 266.539 325.586 266.397 325.488 266.284C325.391 266.171 325.258 266.094 325.111 266.066C324.965 266.038 324.813 266.06 324.681 266.129C321.568 268.975 320.208 265.451 320.371 266.59C320.889 270.14 325.063 267.999 325.521 267.105Z" fill="#1C2D33"/>
<path d="M331.352 270.846C327.069 273.773 322.027 272.607 318.257 269.463C312.104 264.311 310.289 255.667 310.884 247.996C310.992 246.614 311.156 245.42 311.291 244.418C313.438 244.121 319.126 242.792 320.155 237.452C319.067 237.316 317.968 237.289 316.875 237.372C314.621 237.479 311.698 239.593 310.451 242.06C309.649 243.8 309.058 245.629 308.688 247.508C306.737 256.453 309.367 267.593 317.363 272.88C321.564 275.644 328.476 276.1 331.972 271.904C332.813 270.874 332.921 270.115 332.813 269.979C332.653 269.788 332.273 270.195 331.352 270.846Z" fill="#1C2D33"/>
<path d="M326.689 254.202C326.771 254.853 327.118 255.368 327.53 255.341C327.908 255.286 328.18 254.718 328.098 254.067C328.017 253.417 327.669 252.902 327.258 252.928C326.879 252.955 326.608 253.525 326.689 254.202Z" fill="#1C2D33"/>
<path d="M316.741 254.067C316.823 254.744 317.202 255.26 317.609 255.233C318.015 255.178 318.286 254.609 318.205 253.904C318.124 253.227 317.744 252.712 317.337 252.738C316.935 252.793 316.687 253.389 316.741 254.067Z" fill="#1C2D33"/>
<path d="M321.106 250.218C319.642 245.772 314.899 248.809 314.545 249.973C314.192 251.138 315.521 251.492 315.819 251.139C319.045 247.318 321.566 251.628 321.106 250.218Z" fill="#1C2D33"/>
<path d="M331.103 250.11C330.642 248.998 325.629 246.396 324.57 250.896C324.248 252.333 326.333 247.89 329.937 251.356C330.267 251.681 331.569 251.221 331.103 250.11Z" fill="#1C2D33"/>
<path d="M334.279 250.652C332.219 244.662 328.261 239.512 321.349 237.664C320.997 237.584 320.644 237.502 320.265 237.45C324.089 242.671 328.839 247.146 334.279 250.652Z" fill="#1C2D33"/>
<path d="M287.793 302.776C285.516 301.394 285.95 301.122 288.47 301.746C290.99 302.369 295.626 303.892 301.887 305.622C310.609 308.124 319.599 309.572 328.666 309.932C330.944 309.986 332.814 310.013 334.14 310.039C336.742 310.12 336.552 310.576 334.033 311.259C332.228 311.716 330.387 312.015 328.53 312.153C319.097 312.993 309.425 311.205 300.476 308.223C296.085 306.814 291.838 304.99 287.793 302.776Z" fill="#1C2D33"/>
<path d="M353.767 405.448C352.084 404.12 350.223 403.034 348.238 402.222C345.402 401.032 342.462 400.107 339.455 399.458C332.289 398.047 324.992 397.41 317.69 397.56C315.738 397.587 312.002 398.292 310.291 397.18C308.908 396.286 309.206 392.572 308.908 390.891C308.801 390.296 308.694 389.834 308.61 389.455C313.204 388.688 317.741 387.613 322.19 386.235C324.658 374.118 325.605 359.645 321.701 347.799C321.865 348.336 317.772 347.23 317.229 346.688C316.715 346.227 315.522 345.089 315.82 344.249C316.142 343.273 317.717 343.679 318.396 344.005C328.485 348.965 332.924 331.319 325.281 326.25C323.77 325.385 322.085 324.871 320.35 324.744C318.614 324.618 316.872 324.882 315.252 325.518C310.02 327.557 310.074 333.461 311.565 338.042C311.701 338.471 311.755 339.126 311.321 339.261C311.135 339.293 310.944 339.255 310.785 339.154C310.089 338.8 309.474 338.306 308.978 337.703C308.483 337.1 308.118 336.4 307.906 335.649C307.694 334.898 307.64 334.111 307.748 333.338C307.855 332.565 308.122 331.822 308.531 331.157C299.585 325.492 287.74 323.703 279.148 331.05C277.857 330.073 276.335 329.447 274.73 329.234C269.065 328.583 263.861 334.195 262.234 339.209C260.228 345.389 266.869 349.346 271.992 350.214C273.098 350.422 274.236 350.386 275.326 350.107C275.949 349.944 276.98 349.022 276.98 350.296C276.98 354.064 269.796 353.061 269.824 352.872C267.864 365.048 267.39 377.418 268.414 389.709C274.472 390.688 280.6 391.177 286.738 391.173C286.738 391.226 286.711 391.28 286.711 391.335C286.466 393.287 286.249 396.322 286.006 399.684C285.952 400.006 285.898 400.063 285.87 400.063C285.677 400.191 285.468 400.292 285.247 400.361C284.325 400.632 283.404 400.93 282.428 401.229C280.449 401.852 278.362 402.53 276.193 403.288C268.662 405.83 261.341 408.957 254.297 412.64C247.44 416.326 240.122 420.798 234.89 426.627C234.036 427.467 233.238 428.363 232.504 429.31C230.092 432.423 230.174 432.969 233.128 430.394C238.254 425.912 243.821 421.962 249.744 418.604C258.312 413.829 267.228 409.706 276.415 406.27C278.72 405.376 280.888 404.562 282.921 403.801C283.924 403.423 284.9 403.069 285.819 402.717C286.249 402.549 286.659 402.33 287.039 402.067C289.814 404.037 293.124 405.114 296.526 405.157C302.896 405.157 307.965 401.308 309.889 399.6C310.63 399.817 311.383 399.989 312.143 400.116C313.771 400.317 315.409 400.424 317.05 400.438C328.515 400.817 339.601 401.847 350.578 405.316C351.5 405.696 352.314 406.048 352.964 406.32C355.448 407.595 356.072 407.487 353.767 405.448ZM288.145 400.162C288.199 398.184 288.091 396.72 288.037 395.283C287.984 393.873 287.902 392.681 287.847 391.705C287.821 391.515 287.821 391.353 287.794 391.168C294.493 391.173 301.181 390.647 307.797 389.596C307.73 389.954 307.685 390.316 307.662 390.68C307.555 391.819 307.499 392.958 307.472 394.095C307.445 394.854 307.445 395.614 307.417 396.373C307.352 397.061 307.502 397.752 307.847 398.351C307.857 398.362 307.865 398.375 307.87 398.389C307.875 398.403 307.877 398.418 307.875 398.433C307.873 398.447 307.867 398.46 307.857 398.47C307.847 398.479 307.834 398.485 307.82 398.486C305.751 400.218 303.367 401.535 300.799 402.363C297.346 403.395 293.631 403.095 290.388 401.523C289.981 401.333 289.602 401.116 289.222 400.899C289.12 400.817 288.145 400.356 288.145 400.166V400.162Z" fill="#1C2D33"/>
<path d="M389.14 324.216C388.711 315.244 384.397 304.863 376.969 299.333C374.91 297.788 373.527 297.3 373.337 297.408C373.123 297.545 374.042 298.222 375.858 299.984C378.387 302.456 380.485 305.332 382.066 308.495C384.332 313.141 385.711 318.17 386.131 323.322C387.405 340.534 371.549 351.268 356.507 354.304C350.846 355.459 345.039 355.724 339.295 355.089C336.747 354.792 335.338 354.494 335.148 354.711C334.986 354.846 336.042 355.443 338.617 356.174C353.363 360.349 372.5 355.253 382.528 343.516C387.105 338.157 389.469 331.256 389.14 324.216Z" fill="#1C2D33"/>
<path d="M340.187 331.075C342.597 331.543 345.061 331.671 347.506 331.453C350.999 331.233 354.46 330.652 357.833 329.719C360.261 329.092 362.595 328.144 364.772 326.899C365.966 326.114 365.966 325.653 364.557 325.707C362.199 325.949 359.856 326.321 357.538 326.819L356.724 326.981C357.593 323.632 357.267 320.086 355.803 316.952C355.703 316.758 355.529 316.611 355.321 316.545C355.112 316.479 354.886 316.498 354.692 316.599C354.498 316.7 354.351 316.873 354.285 317.082C354.219 317.29 354.239 317.516 354.339 317.711C355.713 320.74 355.897 324.175 354.854 327.333C352.493 327.768 350.002 328.173 347.562 328.58C344.202 329.117 341.659 329.502 340.299 329.909C338.968 330.261 338.805 330.695 340.187 331.075Z" fill="#1C2D33"/>
<path d="M355.204 284.045C355.204 284.045 353.117 283.368 354.933 278.814C356.45 275.02 363.119 257.483 359.622 242.384C356.017 226.908 338.832 218.206 324.493 225.092C319.363 227.678 314.985 231.543 311.783 236.313C315.116 235.991 319.481 235.093 322.707 235.96C340.922 240.79 338.645 268.482 335.392 274.64C333.06 279.059 329.239 286.078 322.978 284.534C322.556 284.425 322.147 284.271 321.758 284.073C321.98 280.961 322.043 277.84 321.947 274.721C320.602 274.506 319.312 274.027 318.153 273.312C315.982 271.984 314.101 270.232 312.623 268.16C312.786 269.379 312.895 270.437 313.003 271.359C313.138 275.94 312.596 280.52 312.813 285.128C312.895 286.863 308.801 286.565 307.69 286.755C304.743 287.272 301.843 288.026 299.016 289.009C295.55 290.059 292.234 291.553 289.15 293.453C287.933 294.346 286.766 295.306 285.653 296.327C285.653 296.327 317.367 313.35 356.941 298.739L371.66 293.725C366.505 289.966 360.994 286.724 355.204 284.045ZM352.928 252.955C352.738 253.335 352.548 253.687 352.331 254.04C352.168 254.284 352.033 254.392 351.979 254.392C351.951 254.392 352.301 247.345 352.249 246.664C352.011 243.722 351.24 240.847 349.973 238.18C348.75 235.54 346.947 233.212 344.699 231.367C342.45 229.522 339.813 228.21 336.986 227.527C335.519 227.202 334.035 226.958 332.541 226.796C331.484 226.66 330.86 226.581 330.806 226.389C330.752 226.226 331.212 226.036 332.324 225.853C333.915 225.637 335.525 225.61 337.122 225.771C339.493 226.002 341.8 226.673 343.925 227.749C349.156 230.352 352.328 235.719 353.657 241.248C354.233 243.605 354.407 246.043 354.171 248.458C353.99 250.012 353.571 251.529 352.928 252.955Z" fill="#2757CC"/>
<path d="M260.308 339.125L220.191 342.377C219.777 345.185 219.832 348.043 220.354 350.834C221.628 357.637 222.034 366.231 219.053 363.384C216.532 360.999 213.472 350.645 213.579 342.919L176.442 345.924C176.442 345.924 193.627 349.962 189.966 358.69C189.168 360.639 187.857 362.335 186.172 363.597L216.421 382.923L264.046 381.514C264.046 381.514 264.887 355.655 265.157 351.782C265.132 351.756 256.16 345.63 260.308 339.125ZM253.585 378.156C250.197 378.97 240.575 379.349 232.091 379.024C223.607 378.698 219.459 377.75 222.821 376.937C226.209 376.123 235.831 375.745 244.315 376.07C252.827 376.395 256.973 377.344 253.585 378.156Z" fill="#2757CC"/>
<path d="M186.906 353.328C185.749 351.945 184.307 350.827 182.679 350.05C181.051 349.274 179.275 348.857 177.472 348.829C173.001 348.53 168.203 350.075 163.188 350.915C152.075 352.786 141.097 352.271 130.526 348.232C125.249 346.161 120.107 343.762 115.13 341.048C113.178 334.733 113.476 323.591 113.476 323.456C113.482 323.241 113.403 323.032 113.256 322.874C113.109 322.717 112.905 322.624 112.69 322.616C112.58 322.599 112.468 322.607 112.363 322.64C112.257 322.673 112.16 322.729 112.079 322.805C111.998 322.881 111.935 322.974 111.895 323.077C111.856 323.181 111.84 323.292 111.85 323.402C111.85 323.863 111.579 333.295 113.15 339.909C111.443 338.934 110.007 338.093 108.868 337.441C106.917 336.302 105.863 335.625 105.648 335.733C105.433 335.815 106.077 336.655 107.871 338.173C113.276 342.652 119.279 346.356 125.706 349.178C131.913 352.051 138.229 354.437 145.114 355.059C145.628 355.114 146.171 355.086 146.686 355.141C146.415 356.225 146.09 357.878 145.656 360.209C145.033 363.598 144.219 368.152 143.295 373.841C143.105 374.979 133.076 375.277 131.937 375.277C127.915 375.319 123.899 374.937 119.956 374.139C111.113 372.462 102.791 368.719 95.6702 363.215C80.841 351.512 76.5584 330.637 82.6571 313.211C85.5133 305.402 90.6273 298.618 97.3489 293.723C105.48 287.678 115.238 284.344 124.861 281.092C115.537 282.446 106.321 285.266 98.3492 290.28C89.6954 295.588 83.1082 303.686 79.6732 313.239C75.632 324.77 75.9015 337.373 80.4321 348.72C85.1483 360.212 95.8559 369.456 107.511 373.467C119.627 377.614 132.231 378.97 144.7 375.528L145.079 375.421L145.134 375.041C145.187 374.58 145.241 374.146 145.296 373.685L149.985 373.55L152.263 355.172C159.309 354.874 165.815 353.004 172.672 351.621C177.064 350.726 182.214 350.699 185.792 353.79C187.472 355.28 187.906 356.58 188.178 356.608C188.285 356.636 188.313 356.365 188.204 355.796C187.9 354.911 187.462 354.079 186.906 353.328ZM148.496 372.004L145.461 372.085C146.49 363.546 147.114 357.773 147.222 355.198C148.334 355.252 149.446 355.279 150.556 355.279L148.496 372.004Z" fill="#1C2D33"/>
<path d="M183.627 358.423C182.318 357.276 180.757 356.454 179.071 356.025C177.384 355.596 175.62 355.572 173.923 355.954C172.242 356.219 170.677 356.974 169.423 358.124C168.773 358.856 168.936 359.261 169.803 359.261C171.945 359.289 174.058 358.747 176.199 358.832C178.266 358.84 180.307 359.284 182.191 360.133C182.78 360.468 183.438 360.663 184.115 360.703C184.629 360.703 184.874 360.488 184.928 360.296C184.982 360.081 184.874 359.889 184.657 359.619C184.351 359.19 184.006 358.789 183.627 358.423Z" fill="#1C2D33"/>
<path d="M173.515 367.287C169.178 364.848 164.164 365.715 159.962 367.938C157.933 368.955 156.112 370.343 154.595 372.031C153.783 373.006 153.918 373.44 155.132 373.115C157.978 372.329 160.58 370.861 163.345 369.835C166.266 368.696 169.472 368.506 172.507 369.293C173.591 369.564 174.405 369.754 174.976 369.943C175.572 370.133 175.951 370.265 176.141 370.158C176.303 370.05 176.276 369.671 175.819 369.047C175.168 368.321 174.386 367.724 173.515 367.287Z" fill="#1C2D33"/>
<path d="M178.638 362.896C178.044 362.424 177.409 362.007 176.741 361.65C174.212 360.2 171.217 359.791 168.392 360.511C167.713 360.686 167.071 360.979 166.495 361.378C165.682 361.975 165.763 362.408 166.657 362.57C168.365 362.892 170.154 362.842 171.862 363.221C175.196 363.981 177.852 365.797 180.562 367.802C181.322 368.399 181.81 368.399 181.647 367.287C181.238 365.494 180.162 363.924 178.638 362.896Z" fill="#1C2D33"/>
<path d="M143.564 245.199C142.615 245.385 141.718 245.773 140.934 246.337L148.09 247.668C148.063 247.697 145.651 244.635 143.564 245.199Z" fill="#1C2D33"/>
<path d="M161.236 245.664C158.037 242.791 155.057 247.399 155.057 247.399L161.236 245.664Z" fill="#1C2D33"/>
<path d="M160.83 242.516C161.182 242.814 162.483 242.194 161.886 241.107C161.317 239.995 155.951 237.853 155.3 242.596C155.11 244.092 156.845 239.296 160.83 242.516Z" fill="#1C2D33"/>
<path d="M140.283 242.547C139.986 243.794 141.422 244.038 141.694 243.658C144.806 239.457 147.738 243.713 147.142 242.276C145.325 237.804 140.586 241.3 140.283 242.547Z" fill="#1C2D33"/>
<path d="M152.4 255.64C153.538 255.503 156.411 253.742 156.384 252.634C156.357 251.527 152.887 246.644 152.887 246.644C152.237 247.484 154.677 252.472 154.541 252.689C153.647 253.071 152.733 253.406 151.803 253.692C151.343 253.904 151.234 255.775 152.4 255.64Z" fill="#1C2D33"/>
<path d="M148.743 259.19C148.446 258.892 147.28 259.217 147.741 260.274C148.201 261.305 152.864 263.933 153.623 259.922C153.863 258.648 152.156 262.551 148.743 259.19Z" fill="#1C2D33"/>
<path d="M125.159 258.729C125.213 260.436 128.357 263.881 131.014 264.53L131.094 265.424C131.99 275.182 133.182 279.899 133.751 275.969C134.086 272.573 134.177 269.158 134.022 265.749C133.968 263.495 133.886 261.087 133.724 258.593L133.669 257.673C133.682 257.046 133.502 256.431 133.154 255.91C132.942 255.64 132.676 255.416 132.372 255.254C132.069 255.091 131.736 254.994 131.393 254.967L130.444 254.831C129.484 254.788 128.55 254.499 127.734 253.991C127.437 253.698 127.203 253.346 127.049 252.958C126.895 252.57 126.823 252.154 126.839 251.737C126.813 250.837 126.885 249.938 127.053 249.054C127.132 248.457 127.317 247.878 127.599 247.346C128.656 246.397 129.853 246.506 130.067 248.213C130.473 251.249 131.639 244.554 133.618 243.605C135.597 242.657 145.138 241.057 147.464 227.935C147.464 227.935 151.178 235.037 162.616 237.26C162.589 237.53 162.562 237.829 162.509 238.181C162.401 239.59 162.428 241.623 162.509 244.084C162.629 246.857 162.602 249.635 162.428 252.406C162.234 255.557 161.413 258.637 160.013 261.467C158.587 264.303 156.121 266.478 153.129 267.539C151.698 267.976 150.206 268.177 148.71 268.134C147.371 268.167 146.031 268.113 144.699 267.972C142.787 267.786 140.887 267.487 139.01 267.078C137.683 266.807 136.897 266.671 136.756 266.833C136.616 266.996 137.109 267.457 138.383 268.134C140.214 269.047 142.154 269.721 144.157 270.14C145.427 270.401 146.713 270.58 148.006 270.677C147.724 272.49 147.854 274.343 148.385 276.098C148.612 277.064 149.026 277.976 149.605 278.782C150.012 279.27 150.446 279.379 150.824 278.809C151.53 277.698 151.421 274.771 150.771 272.276C150.652 271.757 150.489 271.249 150.282 270.759H150.662C151.546 270.738 152.426 270.639 153.291 270.46C155.141 270.021 156.885 269.214 158.417 268.087C159.949 266.96 161.239 265.537 162.209 263.901C164.093 260.639 165.145 256.964 165.273 253.2C165.377 250.801 165.277 248.398 164.974 246.016C166.195 244.282 172.618 234.009 164.545 220.944C155.681 206.632 145.382 219.29 145.382 219.29C145.382 219.29 132.561 211.62 124.889 221.759C120.34 227.669 118.009 234.988 118.304 242.441C118.304 242.441 115.62 242.278 116.189 246.018C116.758 249.759 125.104 256.804 125.159 258.729ZM129.143 238.833C129.984 238.21 131.691 237.397 133.561 236.177C135.607 234.847 137.498 233.293 139.199 231.542C140.455 230.224 141.64 228.839 142.75 227.395C143.072 226.966 143.32 226.691 143.509 226.691C143.698 226.691 143.862 226.988 143.862 227.612C143.573 229.597 142.758 231.469 141.5 233.033C139.84 235.267 137.691 237.093 135.219 238.373C133.496 239.341 131.558 239.863 129.581 239.891C128.466 239.809 128.303 239.43 129.143 238.833Z" fill="#1C2D33"/>
<path d="M206.448 336.712C206.084 332.292 205.219 327.927 203.872 323.702C199.527 310.157 190.911 298.383 179.315 290.144C172.825 285.609 165.515 282.378 157.793 280.63C157.332 280.17 156.898 279.682 156.437 279.248C155.976 278.76 155.489 278.272 155.109 277.893L154.217 276.97L153.35 277.837C150.26 280.901 147.413 283.692 144.92 286.186C138.278 282.256 133.048 279.247 129.524 277.295L129.388 277.214L129.28 277.321C124.537 282.39 124.157 283.366 129.2 279.137C129.294 279.049 129.393 278.968 129.497 278.893C133.021 281.333 138.09 284.689 144.243 288.679L145.246 289.329L146.14 288.489C148.609 286.185 151.318 283.664 154.137 281.062C154.734 281.685 155.302 282.309 155.898 282.959L156.251 283.339L156.738 283.446C175.225 287.512 190.675 301.336 199.028 318.034C201.827 323.864 203.894 330.018 205.181 336.356C206.177 342.458 206.611 343.195 206.448 336.712Z" fill="#1C2D33"/>
<path d="M146.22 294.942C148.063 296.894 153.321 300.743 158.959 304.348L162.05 306.327L161.344 302.857C161.022 301.285 160.667 299.686 160.315 298.14C158.417 290.198 156.764 286.485 156.601 289.819C156.67 293.167 157.015 296.503 157.632 299.794C156.683 299.198 155.734 298.629 154.812 298.087C147.765 293.913 143.943 292.503 146.22 294.942Z" fill="#1C2D33"/>
<path d="M132.965 305.378L134.483 303.67C134.971 303.134 135.432 302.586 135.919 302.044C141.042 296.189 142.967 292.801 140.283 294.481C138.127 296.004 136.113 297.718 134.266 299.604C133.616 297.572 132.91 295.539 132.178 293.559C129.441 286.268 127.381 282.961 127.599 286.133C127.787 289.031 129.767 296.298 132.152 303.047L132.965 305.378Z" fill="#1C2D33"/>
<path d="M143.617 296.488C143.484 296.591 143.38 296.729 143.318 296.886C143.256 297.044 143.238 297.215 143.265 297.382C143.284 297.541 143.35 297.69 143.455 297.811C144.512 300.983 150.313 325.432 149.418 342.891C149.412 343 149.428 343.108 149.464 343.211C149.501 343.314 149.557 343.408 149.63 343.489C149.703 343.569 149.792 343.635 149.89 343.681C149.989 343.727 150.095 343.754 150.204 343.758H150.259C150.469 343.755 150.669 343.672 150.82 343.526C150.971 343.38 151.061 343.182 151.071 342.973C151.967 325.571 145.812 297.191 144.512 296.46C144.374 296.383 144.218 296.346 144.061 296.351C143.903 296.355 143.75 296.403 143.617 296.488Z" fill="#1C2D33"/>
<path d="M230.057 304.646C229.088 300.782 226.914 297.326 223.85 294.78C224.793 293.259 225.185 291.46 224.962 289.684C224.392 286.432 221.004 284.724 218.293 283.477C215.638 282.257 211.951 279.763 208.942 280.793C207.501 281.368 206.29 282.402 205.496 283.735C204.702 285.068 204.37 286.625 204.551 288.166C204.822 289.548 206.123 290.527 207.18 291.31C210.048 293.417 213.085 295.283 216.26 296.891C217.291 297.405 218.646 298.219 219.866 297.948C220.911 297.668 221.858 297.105 222.604 296.321C223.643 297.34 224.57 298.467 225.369 299.683C227.337 302.519 228.16 305.996 227.672 309.414C226.968 313.615 224.853 317.437 223.254 321.34C221.492 325.595 219.622 329.824 218.131 334.16C217.345 336.365 216.79 338.645 216.477 340.964C216.228 343.024 216.192 345.104 216.37 347.171C216.623 350.146 217.242 353.077 218.214 355.9C218.891 357.878 219.325 358.718 219.46 358.556C219.502 357.46 219.384 356.364 219.108 355.303C218.051 348.906 217.915 342.807 219.813 336.573C221.629 330.61 224.556 325.108 226.941 319.361C228.892 314.784 231.304 309.796 230.057 304.646ZM222.414 291.039C222.258 291.687 221.897 292.267 221.383 292.692C220.652 293.262 220.354 292.991 220.381 292.263C220.458 291.739 220.428 291.204 220.293 290.692C220.158 290.179 219.921 289.699 219.595 289.281C218.42 288.034 217.068 286.966 215.583 286.111C214.296 285.341 213.112 284.412 212.059 283.346C211.523 282.64 211.652 282.288 212.489 282.342C214.978 282.736 217.327 283.753 219.319 285.297C220.749 286.235 221.82 287.63 222.356 289.254C222.561 289.829 222.582 290.453 222.414 291.039Z" fill="#2757CC"/>
</g>
<rect x="2" y="2" width="462" height="625" rx="2" stroke="#EEF5FE" stroke-width="4"/>
<defs>
<clipPath id="clip0">
</clipPath>
</defs>
</svg>
