<svg width="1440" height="1022" viewBox="0 0 1440 1022" fill="none" xmlns="http://www.w3.org/2000/svg">
<path d="M550.453 -281.492C639.377 -248.748 677.764 -82.1261 741.241 40.7406C804.718 163.607 888.213 219.293 874.5 294.5C859.661 369.225 708.043 407.524 629.441 484.863C549.714 561.72 559.681 679.863 495.728 702.997C432.06 726.917 333.202 712.082 230.874 697.524C127.989 684.057 9.18649 692.353 -65.1949 644.567C-139.861 595.994 -170.106 491.339 -171.705 384.324C-174.43 276.827 -148.225 167.758 -85.1013 84.4582C-21.978 1.15863 79.1893 -55.8888 200.208 -134.345C320.943 -213.587 460.688 -313.933 550.453 -281.492Z" fill="#EEF5FE"/>
<path d="M1604.19 765.315C1667.03 715.405 1625.4 626.568 1625.4 547.035C1625.4 467.502 1674.15 409.388 1628.28 381.668C1581.63 354.61 1543.76 480.136 1440.29 477.351C1336.05 475.227 1164.97 364.745 1098.73 380.038C1032.38 394.871 858.266 428.075 775.526 475.304C691.807 522.275 717.585 564.625 674.217 615.374C630.954 666.583 667.237 714.712 714.092 762.575C760.182 811.099 791.875 845.676 884.522 857.264C977.169 868.852 986.498 773.49 1232.17 840.047C1477.85 906.603 1540.47 815.426 1604.19 765.315Z" fill="#EEF5FE"/>
</svg>
