<svg width="1428" height="1060" viewBox="0 0 1428 1060" fill="none" xmlns="http://www.w3.org/2000/svg">
<g clip-path="url(#clip0)" filter="url(#filter0_d)">
<path d="M375.909 302.262C375.456 298.68 374.539 295.172 373.181 291.826C373.008 291.193 372.705 290.603 372.292 290.094C371.878 289.585 371.362 289.167 370.778 288.868C369.997 288.665 369.179 288.656 368.394 288.841L356.151 290.713C355.127 290.76 354.145 291.141 353.358 291.798C351.763 293.474 353.334 296.172 353.285 298.484C353.23 301.084 350.918 303.194 348.412 303.892C345.853 304.409 343.214 304.376 340.669 303.796L323.55 301.138C328.592 299.529 333.08 296.537 336.501 292.501C338.754 289.835 339.952 284.855 336.696 283.593C335.729 283.327 334.72 283.246 333.723 283.354C325.967 283.414 319.864 276.943 312.603 274.217C307.956 272.586 302.911 272.464 298.191 273.871C293.471 275.277 289.316 278.139 286.322 282.047L295.441 282.486C296.299 282.439 297.15 282.666 297.87 283.133C299.869 284.774 297.384 287.926 297.665 290.496C298.031 293.834 302.467 294.547 305.81 294.884C309.154 295.222 313.396 297.937 311.787 300.885C294.982 306.67 277.881 289.578 260.232 291.682C255.765 292.214 251.547 293.968 247.186 295.071C220.546 301.807 193.004 283.834 165.789 287.641C159.739 288.671 153.792 290.239 148.02 292.324C144.316 293.539 140.453 294.852 137.762 297.671C135.07 300.49 134.046 305.31 136.596 308.257C129.568 308.836 122.494 308.164 115.701 306.273C117.538 307.293 119.066 308.789 120.125 310.603C121.184 312.417 121.735 314.482 121.72 316.582C110.747 318.37 100.065 321.625 89.9614 326.259C91.8472 329.393 94.0498 332.325 96.5346 335.01L82.6439 343.928C87.3368 345.109 89.7632 351.504 87.0341 355.498C91.9001 353.335 94.9159 347.739 100.119 346.604C103.528 345.861 106.997 347.254 110.231 348.563C113.465 349.873 117.019 351.142 120.367 350.159C123.715 349.177 126.184 344.839 124.057 342.075C138.366 337.903 153.154 335.594 168.055 335.206C169.205 335.061 170.371 335.283 171.387 335.838C173.327 337.182 172.817 340.087 172.712 342.444C172.608 344.801 174.446 347.899 176.554 346.836C174.074 348.985 176.194 353.031 178.573 355.291C180.953 357.551 183.82 360.669 182.364 363.609C181.984 364.376 181.339 364.99 180.973 365.764C179.893 368.049 181.608 370.713 183.63 372.231C185.652 373.748 188.129 374.809 189.533 376.911C190.938 379.012 190.3 382.69 187.788 382.984L180.649 373.925C178.21 376.453 176.538 379.62 175.826 383.058C183.397 389.243 184.536 401.831 178.198 409.272C174.959 413.075 170.353 415.385 166.333 418.351C162.313 421.317 158.593 425.541 158.603 430.534C158.621 439.161 157.915 447.176 161.15 455.175C167.116 469.923 174.003 484.282 181.771 498.167C183.811 501.813 186.447 505.809 190.58 506.437C185.357 493.731 180.656 480.827 176.475 467.726C179.198 467.737 182.345 467.953 183.941 470.157C185.262 471.982 184.978 474.464 185.389 476.68C185.911 478.826 186.782 480.872 187.968 482.737L212.908 527.133C214.975 530.813 217.347 534.764 221.298 536.254C223.824 537.207 226.747 537.028 229.072 538.4C230.895 539.475 232.123 541.384 233.981 542.397C239.235 545.261 246.54 539.768 251.45 543.187C252.854 544.165 253.747 545.719 255.041 546.838C259.575 550.762 267.014 548.137 272.249 551.064C275.622 552.951 277.371 556.724 279.17 560.144C283.678 568.709 290.971 577.1 300.631 577.782C303.665 577.997 306.765 577.422 309.731 578.096C312.697 578.771 315.617 581.357 315.14 584.36C314.324 589.507 316.869 595.143 316.186 600.31C314.941 609.721 301.583 613.857 300.435 623.28C300.184 625.343 300.577 627.473 300.086 629.493C299.483 631.968 297.623 633.983 296.962 636.443C295.709 641.106 299.052 645.746 302.724 648.883C306.396 652.019 310.776 654.724 312.784 659.115C314.906 663.756 313.863 669.168 314.554 674.224C316.06 685.261 325.6 693.443 335.417 698.719C338.409 700.327 341.62 701.883 343.556 704.671C346.083 708.311 345.832 713.109 346.675 717.458C348.742 728.109 357.714 736.884 357.969 747.73C358.15 755.439 353.862 762.433 351.3 769.707C348.899 776.676 348.03 784.081 348.752 791.416C349.475 798.751 351.773 805.844 355.488 812.212C357.404 815.445 359.696 818.494 361.052 821.999C363.471 828.254 362.686 835.365 364.916 841.69C367.865 850.052 375.967 856.959 375.192 865.791C378.87 873.425 386.993 877.176 395.161 879.448L409.799 883.52C412.602 884.3 415.531 885.085 418.385 884.521C421.24 883.956 423.963 881.588 423.89 878.681C416.711 877.063 409.302 875.343 403.385 870.972C397.467 866.6 393.414 858.816 395.659 851.812C396.7 848.565 398.915 844.815 396.809 842.132C395.603 840.595 393.399 840.194 392.039 838.792C389.918 836.606 390.646 832.933 392.171 830.296C393.696 827.66 395.9 825.304 396.515 822.321C396.826 820.653 396.618 818.929 395.921 817.382C395.223 815.834 394.069 814.537 392.612 813.664C395.327 812.64 397.795 811.057 399.858 809.018C401.763 806.844 402.644 803.491 401.145 801.019C405.596 801.583 410.851 801.86 413.773 798.457C416.106 795.74 415.946 791.678 415.024 788.218C414.102 784.758 412.544 781.397 412.495 777.817C422.763 778.303 433.054 777.955 443.265 776.774C441.788 771.805 438.433 767.605 433.91 765.066C438.535 764.284 442.748 758.751 444.209 754.297C445.67 749.843 445.297 744.991 444.394 740.392C444.048 739.207 444 737.956 444.256 736.748C444.777 735.09 446.407 734.078 447.916 733.212L470.871 720.037C472.241 719.351 473.483 718.435 474.542 717.329C476.947 714.506 476.591 710.244 475.359 706.747C474.128 703.249 472.155 699.961 471.681 696.283C470.262 685.286 482.043 677.395 486.019 667.043C487.579 662.98 487.897 658.564 488.199 654.223C488.523 649.561 488.547 644.145 484.965 641.14C481.531 638.26 476.165 638.903 472.572 636.224C469.277 633.767 468.141 628.997 464.542 627.013C461.273 625.211 457.175 626.357 453.54 625.51C447.14 624.018 443.112 616.646 436.575 615.964C432.887 615.579 428.713 617.38 425.69 615.234C423.027 613.343 422.92 609.541 422.413 606.315C421.524 601.302 419.12 596.681 415.523 593.076C411.927 589.47 407.311 587.052 402.297 586.148C398.494 585.539 394.355 585.77 391.12 583.682C387.845 581.567 386.343 577.608 383.77 574.68C379.623 569.96 373.091 568.283 366.973 566.846L342.086 560.999C337.668 559.961 331.974 559.411 329.603 563.278C328.901 564.751 328.404 566.312 328.126 567.919C327.238 570.827 325.45 573.378 323.02 575.206C320.59 577.033 317.642 578.044 314.601 578.093C312.515 574.538 309.136 571.925 305.169 570.8C302.645 570.097 299.944 570.019 297.537 568.985C296.227 568.346 295.06 567.446 294.11 566.34C293.159 565.235 292.444 563.947 292.009 562.556C291.573 561.165 291.426 559.699 291.577 558.25C291.728 556.8 292.173 555.396 292.886 554.124C294.321 551.571 294.875 548.618 294.463 545.719C294.051 542.82 292.695 540.137 290.606 538.084C286.374 534.287 280.251 533.37 274.577 533.75C273.09 530.509 275.575 526.852 278.253 524.497C280.931 522.142 284.183 519.827 284.767 516.309C285.684 510.777 278.62 506.575 273.257 508.225C267.894 509.874 264.47 515.08 262.208 520.212C260.909 523.156 259.806 526.257 257.758 528.739C255.71 531.222 252.412 533 249.292 532.203C244.876 531.075 243.17 525.832 242.193 521.383C240.882 515.413 239.563 509.361 239.837 503.256C240.112 497.15 242.172 490.882 246.677 486.749C254.018 480.014 265.28 480.674 275.187 481.748C272.847 479.113 273.425 474.671 275.93 472.19C277.252 471.016 278.84 470.183 280.558 469.761C282.275 469.339 284.07 469.343 285.785 469.771C288.771 470.392 291.46 471.999 293.421 474.333C296.236 477.763 297.037 482.395 299.165 486.288C301.293 490.182 306.078 493.503 309.995 491.414C313.378 489.61 313.915 484.922 313.073 481.183C312.231 477.445 310.443 473.809 310.748 469.99C311.329 462.701 318.89 458.314 325.562 455.312C332.234 452.31 339.873 448.273 340.93 441.038C340.967 439.621 341.234 438.22 341.722 436.889C342.462 435.714 343.49 434.748 344.709 434.082C364.181 421.223 383.977 408.206 406.232 401.179C407.39 400.814 407.526 401.22 408.706 400.933C410.358 399.98 409.263 397.341 407.68 396.278C406.097 395.215 403.98 394.4 403.579 392.536C403.283 391.167 404.091 389.822 404.301 388.436C404.816 385.032 400.741 381.888 397.576 383.25C395.788 380.884 399.325 378.134 402.186 377.347C410.775 374.985 419.592 373.546 428.486 373.054C429.513 372.891 430.564 373.07 431.479 373.563C432.973 374.597 432.782 376.969 431.723 378.445C430.665 379.921 429.018 380.848 427.698 382.097C426.257 383.5 425.229 385.272 424.726 387.219C424.223 389.167 424.266 391.215 424.848 393.14C429.492 395.5 434.54 397.93 439.683 397.098C444.826 396.267 449.39 390.492 446.973 385.88C444.722 381.586 437.96 380.617 436.797 375.91C435.436 370.399 443.242 365.498 441.484 360.1C440.714 357.736 438.356 356.345 436.547 354.638C434.41 352.545 432.957 349.855 432.377 346.922C431.798 343.989 432.12 340.949 433.301 338.202C430.354 338.72 427.326 338.524 424.47 337.631C421.614 336.738 419.015 335.174 416.889 333.069C412.963 329.11 409.832 322.865 404.257 323.042C399.142 323.205 394.736 329.169 389.953 327.349C388.776 326.902 387.535 325.991 386.395 326.524C386.021 326.767 385.708 327.091 385.478 327.472C385.248 327.854 385.108 328.282 385.068 328.726C383.852 334.533 385.943 341.15 382.776 346.169C379.329 351.63 371.357 352.387 367.179 357.311C364.91 359.985 364.032 363.587 361.947 366.405C359.862 369.223 355.437 371.015 352.935 368.559C354.164 366.033 354.5 363.164 353.887 360.423C353.274 357.681 351.749 355.228 349.56 353.465C347.237 351.951 344.733 350.733 342.107 349.842C339.172 348.601 336.38 347.046 333.78 345.205C332.478 344.42 331.419 343.288 330.723 341.936C330.173 340.244 330.247 338.41 330.932 336.767C332.201 333.132 334.439 329.913 337.405 327.456C340.372 324.999 343.953 323.399 347.762 322.827C351.094 322.374 354.971 322.534 357.176 319.997C358.342 318.655 358.954 316.626 360.648 316.081C361.731 315.864 362.855 316.002 363.853 316.475L376.287 320.849C377.675 321.475 379.202 321.728 380.717 321.581C381.468 321.48 382.153 321.099 382.635 320.514C383.117 319.929 383.359 319.184 383.314 318.427C382.916 316.364 379.739 315.374 380.028 313.292C380.19 312.618 380.553 312.008 381.069 311.544C385.556 306.771 391.044 303.049 397.139 300.643C403.235 298.238 409.787 297.209 416.327 297.63C417.897 300.206 415.414 303.256 413.349 305.455C411.284 307.654 409.624 311.583 412.122 313.276C413.145 313.798 414.284 314.054 415.433 314.021C418.494 314.435 421.469 315.337 424.245 316.692C428.542 318.56 432.756 320.605 436.888 322.825C436.523 320.103 436.174 317.235 437.207 314.689C438.24 312.144 441.174 310.147 443.738 311.138C446.208 312.094 447.475 315.363 450.107 315.662C453.618 316.062 455.003 310.878 453.537 307.666C452.07 304.453 449.167 301.763 448.925 298.24C448.761 295.863 449.666 292.916 447.766 291.476C447.09 291.044 446.323 290.776 445.525 290.691L398.09 281.968C395.274 281.45 391.204 281.847 391.079 284.707C391.009 286.303 392.436 287.882 391.804 289.349C391.13 290.915 388.914 290.772 387.3 291.326C384.797 292.186 383.54 295.157 383.781 297.792C384.221 300.41 385.236 302.898 386.752 305.078C383.666 303.788 378.995 303.551 375.909 302.262Z" fill="#EEF5FE"/>
<path d="M338.061 262.023C335.07 261.034 331.847 260.988 328.829 261.891C325.81 262.794 323.143 264.603 321.188 267.073C320.407 268.1 319.751 269.517 320.405 270.63C321.343 272.225 323.731 271.595 325.492 271.025C328.081 270.1 330.898 270.033 333.528 270.833C335.181 271.4 336.661 272.403 338.322 272.949C339.13 273.287 340.015 273.399 340.882 273.272C341.75 273.145 342.566 272.785 343.244 272.23C344.384 271.068 344.455 269.262 344.457 267.635C344.536 267.091 344.493 266.536 344.33 266.01C344.167 265.485 343.888 265.002 343.515 264.598C342.85 264.213 342.103 263.993 341.336 263.954C339.617 263.636 338.064 262.729 336.943 261.389" fill="#EEF5FE"/>
<path d="M355.165 257.264C354.496 257.227 353.828 257.364 353.227 257.66C352.625 257.955 352.11 258.401 351.731 258.953C351.352 259.506 351.121 260.146 351.061 260.814C351.001 261.481 351.114 262.152 351.388 262.763C353.444 263.324 355.592 263.464 357.703 263.175C358.756 263.011 359.737 262.54 360.523 261.821C361.308 261.101 361.863 260.165 362.117 259.131C359.631 259.583 357.066 259.093 354.922 257.758" fill="#EEF5FE"/>
<path d="M412.551 249.316C406.955 250.505 401.52 252.35 396.358 254.813C398.792 255.748 400.86 257.439 402.259 259.638C403.658 261.836 404.314 264.426 404.129 267.024C403.91 268.022 403.935 269.058 404.202 270.044C404.797 271.484 406.52 272.025 408.035 272.395C410.757 273.223 413.6 273.585 416.442 273.467C417.864 273.393 419.245 272.965 420.46 272.223C421.675 271.481 422.686 270.448 423.401 269.218C423.813 268.05 424.296 266.908 424.848 265.799C428.48 260.272 439.268 266.955 443.167 261.613C444.54 259.731 444.415 256.899 446.205 255.408C447.132 254.758 448.205 254.349 449.329 254.217C457.17 252.66 465.09 251.532 473.054 250.84C476.827 250.512 481.746 249.158 481.777 245.372C467.564 242.583 452.826 244.564 439.856 251.008C435.183 253.347 429.002 258.268 424.501 255.167C422.815 254.005 422.899 250.879 420.579 249.573C418.208 248.239 415.068 248.782 412.551 249.316Z" fill="#EEF5FE"/>
<path d="M459.033 258.003L465.705 259.284C464.477 259.229 463.251 259.437 462.11 259.894C460.968 260.35 459.938 261.045 459.086 261.931C458.235 262.817 457.582 263.874 457.172 265.033C456.762 266.191 456.603 267.423 456.708 268.647C462.956 270.733 469.767 268.703 476.349 268.98C482.931 269.258 490.588 273.956 489.465 280.442C489.125 282.404 487.991 284.364 488.581 286.265C488.994 287.598 490.17 288.543 490.834 289.771C492.217 292.328 491.112 295.563 489.365 297.888C487.619 300.213 485.271 302.068 483.738 304.538C479.924 310.683 482.091 318.628 484.362 325.493C485.019 328.086 486.232 330.507 487.917 332.586C491.282 336.162 496.766 336.473 501.678 336.545C505.253 336.597 509.348 336.42 511.608 333.652C514.56 330.039 512.496 324.401 514.439 320.16C516.204 316.308 520.7 314.656 524.774 313.484C532.237 311.337 539.842 309.512 546.898 306.269C555.659 302.241 563.846 295.966 573.476 295.447C576.177 295.302 578.946 295.621 581.548 294.881C584.15 294.141 586.622 291.893 586.425 289.197C586.257 286.893 584.306 285.201 582.782 283.464C581.258 281.727 580.061 279.057 581.462 277.219L606.702 272.508C604.913 267.635 603.519 261.218 607.63 258.046C609.114 256.902 611.1 256.445 612.363 255.061C614.515 252.703 613.433 248.642 610.948 246.636C608.463 244.631 605.103 244.166 601.92 243.901C590.853 242.983 579.723 243.59 568.634 244.197C546.958 245.385 525.282 246.572 503.607 247.759C499.243 247.998 494.205 247.633 490.203 249.121C486.815 250.38 484.406 252.692 480.531 253.504C473.378 255.004 465.506 253.989 459.033 258.003Z" fill="#EEF5FE"/>
<path d="M578.56 310.705C577.88 310.597 577.184 310.755 576.617 311.145C576.243 311.557 576.02 312.085 575.985 312.641C575.555 315.096 576.068 317.622 577.422 319.715C578.112 320.742 579.064 321.565 580.18 322.099C581.295 322.634 582.534 322.86 583.767 322.755C586.771 322.372 588.985 319.811 591.747 318.561C596.004 316.636 614.082 313.636 601.576 306.885C597.267 304.558 594.482 306.612 591.085 308.144C587.221 310.12 582.89 311.005 578.56 310.705Z" fill="#EEF5FE"/>
<path d="M688.092 254.191C686.632 254.787 685.41 255.85 684.618 257.213C684.253 257.905 684.168 258.711 684.381 259.464C684.594 260.217 685.089 260.859 685.763 261.258C686.308 261.456 686.886 261.547 687.466 261.528L693.403 261.705C695.926 261.781 699.076 262.317 699.754 264.746C700.257 266.55 699.131 268.868 700.49 270.157C701.073 270.608 701.775 270.882 702.51 270.944C704.466 271.446 706.508 271.512 708.492 271.137C712.812 269.979 710.542 267.344 711.903 264.998C713.985 261.408 713.625 263.581 717.293 261.524C720.002 260.004 723.502 257.248 721.241 253.375C717.309 246.641 693.894 251.298 688.092 254.191Z" fill="#EEF5FE"/>
<path d="M805.282 250.805L801.834 251.265C794.06 252.302 786.241 253.348 778.753 255.681C781.994 256.962 785.395 257.796 788.861 258.16C790.77 258.254 792.665 258.523 794.524 258.965C797.831 259.948 801.164 262.489 804.359 261.188C806.34 260.381 806.987 258.319 808.628 257.227C809.761 256.472 814.059 255.251 814.539 254.49C818.424 248.334 808.268 250.407 805.282 250.805Z" fill="#EEF5FE"/>
<path d="M820.421 266.464C815.816 269.038 811.543 272.165 807.698 275.776C806.078 277.297 804.424 279.19 804.571 281.407C804.766 284.353 807.907 286.062 810.628 287.214L821.649 291.877C822.986 289.994 821.762 287.394 820.381 285.543C818.999 283.693 817.357 281.551 817.967 279.324C818.664 276.783 821.765 275.917 824.365 275.479C828.602 274.766 840.03 274.823 838.657 268C837.039 259.96 824.674 264.089 820.421 266.464Z" fill="#EEF5FE"/>
<path d="M818.205 721.436C817.156 724.471 817.056 728.047 818.871 730.697C820.908 733.671 824.983 734.78 828.51 734.026C832.021 733.092 835.151 731.081 837.459 728.276C839.569 725.926 841.305 723.265 842.606 720.388C844.422 715.903 845.702 711.221 846.421 706.437L849.843 688.482C850.608 684.469 850.578 672.167 843.198 676.175C841.182 677.27 836.514 685.916 834.401 688.367C830.592 692.786 830.089 697.073 828.084 702.426C825.573 709.132 820.526 714.72 818.205 721.436Z" fill="#EEF5FE"/>
<path d="M1208.01 813.317C1205.6 812.375 1203.25 811.26 1201 809.981C1198.74 816.191 1197.54 822.736 1197.44 829.344L1213.97 819.999C1216.45 818.593 1219.27 816.64 1219.22 813.786C1219.24 813.434 1219.17 813.082 1219.01 812.767C1218.85 812.453 1218.6 812.188 1218.3 811.999C1217.94 811.852 1217.54 811.805 1217.15 811.863C1214.69 812.067 1212.46 813.272 1210.15 814.11C1207.84 814.948 1205.13 815.391 1203.01 814.148" fill="#EEF5FE"/>
<path d="M1295.18 818.865C1293.37 819.359 1291.6 819.994 1289.88 820.766C1286.09 822.694 1283.51 826.356 1280.1 828.896C1276.83 831.326 1272.9 832.66 1269.04 833.958C1267.91 834.961 1268.43 836.98 1269.66 837.861C1270.99 838.614 1272.51 838.956 1274.03 838.841C1278.04 838.93 1282.26 838.969 1285.77 837.033C1287.75 835.751 1289.6 834.282 1291.3 832.648C1295.41 829.224 1300.34 826.965 1305.22 824.782C1307 824.112 1308.64 823.13 1310.07 821.884C1313.14 818.864 1313.35 814.206 1308.93 813.178C1305.36 812.347 1298.59 817.765 1295.18 818.865Z" fill="#EEF5FE"/>
<path d="M1333.7 793.722C1333.9 791.644 1333.62 789.549 1332.89 787.593C1332.16 785.638 1331 783.874 1329.48 782.435C1329.44 786.592 1329.31 791.021 1326.97 794.458C1325.3 796.908 1322.69 798.562 1320.86 800.895C1319.04 803.228 1318.23 806.927 1320.37 808.974C1321.74 810.015 1323.41 810.589 1325.13 810.611C1329.39 811.113 1334.33 811.393 1337.32 808.314C1338.95 806.633 1339.75 804.145 1341.74 802.909C1342.48 802.598 1343.14 802.124 1343.67 801.523C1344.5 800.217 1343.19 798.496 1341.72 798.025C1340.25 797.554 1338.63 797.776 1337.15 797.329C1335.67 796.882 1334.32 795.221 1335.08 793.877" fill="#EEF5FE"/>
<path d="M1265.24 641.303C1263.01 641.847 1260.69 641.983 1258.4 641.706C1254.61 641.008 1251.65 638.149 1248.59 635.804C1241.3 630.26 1232.44 627.167 1223.29 626.971C1214.96 626.813 1206.55 629.069 1198.37 627.495C1198.91 630.466 1201.45 632.694 1204.16 634.018C1206.88 635.342 1209.87 636.009 1212.6 637.306C1216.97 639.404 1220.43 643.006 1222.36 647.45C1223.24 649.498 1223.79 651.728 1225.12 653.517C1227.84 657.173 1232.99 657.976 1237.54 657.677C1243.47 657.287 1249.67 655.583 1255.18 657.791C1259.41 659.48 1262.43 663.172 1265.95 666.043C1269.48 668.914 1274.44 671.044 1278.49 668.973C1274.28 667.613 1270.62 664.946 1268.04 661.361C1265.47 657.776 1264.1 653.461 1264.15 649.046C1268.12 649.411 1279.55 649.27 1278.93 642.53C1278.41 636.818 1268.65 640.686 1265.24 641.303Z" fill="#EEF5FE"/>
<path d="M1213.32 687.775C1214.02 683.913 1217.88 680.502 1216.68 676.763C1215.85 674.178 1212.85 672.901 1210.13 672.837C1207.42 672.774 1204.75 673.582 1202.03 673.658C1200.26 673.565 1198.49 673.59 1196.73 673.734C1191.33 674.619 1188.01 680.267 1182.93 682.275C1179.84 683.496 1176.37 683.262 1173.16 684.107C1165.86 686.023 1161.25 692.91 1156.15 698.464C1147.91 707.396 1137.18 713.651 1125.34 716.418C1121.19 717.378 1116.74 717.992 1113.44 720.683C1109.07 724.248 1108 730.358 1107.03 735.908C1104.34 751.233 1100.24 766.276 1094.78 780.844L1112.1 783.054C1115.39 783.474 1118.8 783.886 1121.98 782.911C1124.28 782.042 1126.47 780.879 1128.47 779.452C1136.19 774.667 1144.82 771.552 1153.81 770.311C1158.35 769.689 1163.1 769.575 1167.36 771.26C1171.62 772.945 1175.27 776.765 1175.62 781.326C1177.47 780.754 1179.43 780.692 1181.3 781.147C1183.17 781.603 1184.89 782.558 1186.26 783.911C1188.97 786.672 1190.75 790.215 1191.34 794.039C1191.79 796.407 1192.25 799.244 1194.45 800.238C1196.24 801.048 1198.3 800.175 1200.26 800.018C1206.92 799.486 1212.45 807.245 1218.99 805.909C1226.01 804.476 1227.73 793.971 1234.58 791.866C1238.51 790.658 1244.03 792.127 1245.91 788.471C1247.57 785.249 1244.26 781.531 1244.6 777.922C1245.02 773.48 1250.27 771.594 1254.31 769.698C1268.25 763.163 1274.86 744.416 1268.11 730.59C1264.11 722.399 1256.23 715.95 1254.78 706.951C1253.66 700.027 1256.39 691.953 1251.97 686.503C1249.73 683.731 1245.92 682.201 1244.58 678.892C1243.74 676.81 1244.08 674.447 1243.63 672.248C1243.18 670.048 1241.26 667.747 1239.08 668.317C1232.77 669.972 1230.76 689.451 1227.38 694.184C1222.24 701.378 1211.7 696.639 1213.32 687.775Z" fill="#EEF5FE"/>
<path d="M1096.69 648.662C1094.54 648.058 1092.18 647.463 1090.12 648.326C1088.05 649.19 1086.84 652.221 1088.5 653.725C1101.48 653.22 1114.53 652.719 1127.39 654.479C1142.21 656.507 1156.87 661.532 1171.76 660.054C1163.26 657.547 1154.61 655.543 1145.87 654.052L1131.3 651.27C1127.39 650.452 1123.45 649.842 1119.47 649.443C1111.16 648.757 1104.87 650.952 1096.69 648.662Z" fill="#EEF5FE"/>
<path d="M1109.68 603.513C1108.6 603.423 1107.27 603.346 1106.71 604.271C1106.18 605.155 1106.79 606.323 1106.5 607.315C1106.11 608.669 1104.34 609.015 1102.94 608.831C1101.54 608.646 1100.03 608.205 1098.79 608.878C1098.16 609.307 1097.69 609.928 1097.44 610.648C1097.2 611.368 1097.19 612.148 1097.43 612.871C1097.94 614.306 1098.76 615.611 1099.83 616.692C1101.66 618.999 1103.75 621.092 1106.05 622.93C1110.51 626.219 1116.55 627.804 1119.36 632.578C1119.75 633.503 1120.36 634.322 1121.14 634.968C1122.48 635.821 1124.24 635.172 1125.69 634.51L1130.78 632.186C1131.7 631.857 1132.52 631.3 1133.16 630.57C1134.32 628.994 1133.61 626.753 1132.63 625.055C1131.66 623.357 1130.41 621.6 1130.62 619.654C1130.99 616.183 1135.46 614.855 1137.29 611.885C1139.14 608.892 1137.94 605.035 1138.15 601.523C1138.4 597.415 1140.98 592.072 1136.83 589.003C1133.3 586.395 1129.92 588.805 1127.39 591.685C1122.04 597.757 1119.51 604.333 1109.68 603.513Z" fill="#EEF5FE"/>
<path d="M1140.56 542.14C1142.3 545.463 1145.92 547.446 1147.82 550.683C1149.87 554.191 1149.63 558.724 1151.86 562.125C1154.15 565.613 1158.75 567.466 1160.03 571.434C1161.43 575.766 1158.25 581.031 1160.78 584.817C1161.25 585.435 1161.85 585.949 1162.53 586.326C1163.21 586.703 1163.96 586.934 1164.74 587.005C1165.51 587.077 1166.3 586.986 1167.03 586.74C1167.77 586.493 1168.45 586.096 1169.03 585.574C1170.09 584.413 1170.67 582.882 1170.62 581.306C1170.57 579.731 1169.91 578.236 1168.78 577.14C1167.28 575.775 1165.13 575.185 1163.88 573.591C1163.23 572.671 1162.79 571.615 1162.61 570.503C1161.93 567.295 1162.04 563.969 1162.93 560.813C1163.26 560.012 1163.35 559.128 1163.17 558.278C1162.61 556.643 1160.39 556.526 1158.84 555.768C1155.3 554.044 1155.39 549.061 1156.01 545.181C1155.59 547.764 1146.39 543.37 1145.42 541.907C1143.51 539 1144.55 533.393 1144.17 530.18C1140.03 532.172 1138.44 538.076 1140.56 542.14Z" fill="#EEF5FE"/>
<path d="M1047.79 593.275C1046.1 591.374 1043.54 589.385 1041.26 590.531C1039.52 591.406 1039.04 593.81 1039.72 595.632C1040.55 597.402 1041.83 598.924 1043.43 600.049C1048.18 603.963 1053.29 607.495 1057.43 612.044C1064.85 620.186 1068.77 631.172 1076.84 638.672C1078.46 640.411 1080.6 641.571 1082.95 641.976C1085.29 642.194 1087.93 640.692 1088.2 638.35C1088.42 636.421 1087.08 634.694 1085.76 633.264C1082.63 629.86 1079.2 626.726 1076.25 623.169C1074.88 621.803 1074.02 620.012 1073.81 618.092C1073.8 616.176 1075.55 614.172 1077.4 614.646C1075.15 614.069 1073.47 610.309 1070.16 609.602C1067.39 609.012 1066.72 610.726 1063.42 609.313C1057.13 606.618 1052.2 598.201 1047.79 593.275Z" fill="#EEF5FE"/>
<path d="M1195.54 408.139C1193.73 407.603 1191.96 406.97 1190.22 406.243C1185.56 404.842 1179.38 408.271 1180 413.103C1180.41 416.312 1183.4 418.476 1185.05 421.261C1187.5 425.39 1186.85 430.627 1185.56 435.251C1185.25 436.683 1184.65 438.036 1183.8 439.231C1182.61 440.493 1181.19 441.514 1179.61 442.239C1173.31 445.772 1167.75 450.492 1163.24 456.138C1162.75 456.66 1162.41 457.303 1162.25 458.001C1162.03 459.632 1163.67 460.82 1164.6 462.181C1166.66 465.203 1165.17 469.269 1165.37 472.92C1165.34 473.437 1165.44 473.952 1165.67 474.419C1165.89 474.885 1166.23 475.286 1166.65 475.585C1167.9 476.215 1169.37 475.144 1170.04 473.925C1172.27 469.881 1170.59 463.389 1174.78 461.439C1175.58 461.07 1176.54 460.914 1177.07 460.219C1177.9 459.115 1177.09 457.48 1177.52 456.161C1178.16 454.179 1180.87 454.09 1182.95 454.178C1186.54 454.328 1190.12 453.851 1193.54 452.77C1194.88 452.451 1196.1 451.746 1197.04 450.741C1198.3 449.179 1198.19 446.957 1197.94 444.971C1196.68 435.068 1193.54 425.496 1188.69 416.773C1192.37 417.243 1196.37 417.65 1199.55 415.733C1201.33 414.659 1203.46 411.449 1202.58 409.263C1201.18 405.808 1198.66 408.717 1195.54 408.139Z" fill="#EEF5FE"/>
<path d="M723.606 462.603C724.046 464.965 724.479 467.451 723.705 469.725C722.931 471.998 720.495 473.898 718.194 473.202C716.409 472.661 715.378 470.867 714.111 469.5C707.062 461.895 691.158 466.298 686.803 456.889C685.026 453.049 686.234 448.449 685.021 444.396C684.257 442.053 682.735 440.03 680.695 438.646C678.656 437.261 676.213 436.593 673.752 436.745C671.508 437.069 669.323 437.721 667.267 438.68C653.499 444.19 639.045 447.803 624.302 449.419C621.501 449.589 618.729 450.093 616.047 450.92C609.993 453.113 605.857 458.721 602.914 464.444C599.97 470.167 597.797 476.363 593.851 481.448C589.703 486.791 583.891 490.533 578.47 494.581C576.381 495.926 574.642 497.747 573.396 499.895C572.221 502.306 572.287 505.111 572.378 507.792L573.486 540.349C573.629 544.536 573.808 548.874 575.683 552.621C578.025 557.301 582.652 560.366 585.861 564.5C589.137 568.748 590.843 573.997 590.691 579.358C590.623 581.513 590.409 584.062 592.088 585.416C593.11 586.078 594.306 586.422 595.524 586.403L639.594 590.008C647.346 590.642 655.937 591.684 660.998 597.587C663.387 600.372 665.306 604.378 668.965 604.677C670.534 604.805 672.061 604.161 673.631 604.037C677.591 603.724 681.07 606.727 683.266 610.036C686.589 615.079 688.097 621.101 687.543 627.113C687.183 630.887 686.012 634.556 685.76 638.339C684.799 652.733 697.009 665.239 697.246 679.662C697.385 688.147 693.355 696.074 689.426 703.596C695.767 713.197 690.574 725.981 693.099 737.205C695.495 747.853 704.379 756.189 706.593 766.877C707.606 771.77 707.665 777.791 711.982 780.311C713.877 781.233 715.977 781.653 718.081 781.531C730.771 781.681 743.316 778.827 754.691 773.202C760.029 770.554 765.562 766.602 766.494 760.72C767.246 755.976 764.839 750.67 767.288 746.538C770.176 741.668 777.572 742.054 781.821 738.31C788.712 732.236 783.338 720.652 786.131 711.903C788.641 704.038 797.281 699.86 801.564 692.802C803.249 689.767 804.459 686.491 805.15 683.089C807.112 674.958 808.334 666.666 808.799 658.315C808.913 653.241 809.288 648.176 809.921 643.14C814.539 614.471 842.9 595.274 852.108 567.733C852.987 565.103 853.4 561.599 851.059 560.111C849.67 559.449 848.096 559.284 846.6 559.645L826.284 562.204C823.761 562.522 821.086 562.819 818.769 561.772C816.452 560.724 814.791 557.795 816.02 555.57C819.471 549.324 812.373 541.431 809.22 535.031C800.728 517.796 790.615 501.406 779.018 486.084C778.276 485.296 777.811 484.288 777.694 483.211L783.46 483.403C781.514 476.424 778.302 468.787 771.517 466.234C767.693 464.795 763.459 465.293 759.38 465.515C747.696 466.153 735.17 464.39 723.606 462.603Z" fill="#EEF5FE"/>
<path d="M759.39 305.327C762.447 308.572 765.873 312.012 770.297 312.577C778.111 313.576 783.728 305.502 787.305 298.488C787.438 300.276 788.263 301.942 789.605 303.132C790.948 304.321 792.702 304.94 794.494 304.857C796.423 304.533 798.263 303.814 799.901 302.745C815.382 294.29 832.722 289.811 850.363 289.708C850.194 288.373 850.526 287.022 851.294 285.916C852.063 284.811 853.214 284.029 854.525 283.721C858.112 283.011 861.343 286.11 863.073 289.329C864.804 292.548 865.883 296.28 868.632 298.689C871.381 301.099 876.703 300.994 877.789 297.505C878.831 294.155 875.339 291.298 872.438 289.323C869.536 287.348 866.478 283.692 868.432 280.777C883.255 277.499 898.169 274.207 913.337 273.555C915.919 273.645 918.492 273.202 920.896 272.254C923.209 271.12 925.047 268.545 924.425 266.046C921.116 266.824 917.649 266.599 914.467 265.399C911.286 264.2 908.534 262.081 906.563 259.313C927.609 257.577 949.993 256.098 968.645 265.995C970.883 270.796 959.476 274.791 962.528 279.122C963.501 280.503 965.452 280.665 967.142 280.697C980.103 280.937 993.14 281.173 1005.95 279.217C1010.64 278.503 1015.37 277.494 1020.07 278.073C1027.9 279.039 1034.6 284.26 1042.3 285.963C1045.44 286.656 1048.96 286.679 1051.6 284.857C1054.24 283.034 1055.38 278.884 1053.21 276.514C1060.47 269.409 1072.51 271.17 1082.08 274.572C1091.65 277.973 1100.71 283.459 1110.84 284.217C1118.11 284.761 1125.47 282.808 1132.65 284.049C1137.16 284.829 1141.35 286.834 1145.76 288.066C1154.1 290.396 1162.92 289.904 1171.58 290.016C1193.66 290.314 1215.51 294.651 1236.03 302.815C1238.7 303.683 1241.14 305.127 1243.19 307.045C1245.1 309.089 1246.08 312.264 1244.79 314.748L1223.59 311.652C1225.58 315.583 1230.75 316.252 1234.95 317.608C1239.15 318.964 1243.5 323.597 1240.98 327.214C1236.43 325.766 1232.31 330.311 1230.01 334.492C1227.71 338.673 1224.91 343.68 1220.15 343.935C1215.88 344.163 1210.72 340.531 1207.94 343.774C1211.78 348.62 1215.07 353.878 1217.75 359.452C1220.5 365.174 1222.45 372.385 1218.74 377.533C1218.16 378.452 1217.27 379.139 1216.23 379.476C1213.2 380.244 1211.23 376.535 1209.05 374.286C1206.31 371.453 1202.16 370.651 1198.45 369.322C1194.74 367.994 1190.83 365.38 1190.54 361.45C1190.35 359.004 1191.65 356.731 1192.6 354.471C1194.2 350.661 1194.9 346.534 1194.64 342.411C1194.43 339.093 1193.5 335.642 1191.12 333.324C1188.74 331.007 1184.62 330.271 1182.06 332.394C1180.87 333.385 1179.91 334.969 1178.36 335.028C1175.62 335.133 1173.51 330.359 1171.31 331.989C1171.57 333.725 1171.21 335.497 1170.29 336.995C1163.71 342.713 1153.61 340.294 1145.12 342.314C1141.09 343.467 1137.23 345.152 1133.64 347.325C1132.3 347.898 1131.16 348.856 1130.36 350.078C1129.3 352.134 1130.47 354.767 1132.33 356.134C1134.31 357.347 1136.54 358.105 1138.85 358.355C1149.19 360.312 1159.68 363.341 1167.84 369.978C1176 376.615 1181.36 387.586 1178.77 397.781L1158.38 378.31C1159.16 386.485 1159.6 394.683 1159.7 402.904C1159.83 404.509 1159.61 406.123 1159.05 407.634C1157.6 410.842 1153.66 411.922 1150.21 412.63C1149.25 412.813 1148.34 413.196 1147.54 413.755C1146.73 414.314 1146.06 415.036 1145.56 415.874C1145.06 416.712 1144.74 417.647 1144.62 418.617C1144.51 419.587 1144.6 420.57 1144.89 421.502C1146.12 425.498 1149.17 428.613 1151.97 431.717C1154.77 434.821 1157.53 438.348 1157.9 442.512C1158.26 446.675 1155.12 451.367 1150.95 451.078C1147.79 450.858 1145.44 448.029 1144.09 445.162C1142.74 442.295 1141.94 439.101 1139.91 436.665C1133.78 429.291 1120 432.45 1114.5 424.59C1113.1 426.178 1112.13 428.097 1111.68 430.166C1111.23 432.235 1111.32 434.384 1111.93 436.41C1114.49 434.81 1117.99 436.297 1119.91 438.621C1121.83 440.945 1122.74 443.925 1124.24 446.535C1126.28 450.058 1129.52 453.18 1129.8 457.238C1129.73 458.773 1129.76 460.31 1129.88 461.841C1130.39 464.3 1132.47 466.065 1133.91 468.12C1137.26 472.902 1137.1 479.472 1134.93 484.897C1132.77 490.323 1128.89 494.857 1125.04 499.252C1118.32 506.929 1111.46 514.562 1103.49 520.937C1101.22 522.757 1098.79 524.545 1097.38 527.089C1095.96 529.632 1095.89 533.202 1098.06 535.137C1096.51 535.215 1093.71 535.98 1092.16 536.058C1091.61 529.816 1091.49 523.545 1091.8 517.287C1085.66 514.338 1079.04 522.234 1079.83 528.999C1080.63 535.764 1085.52 541.193 1089.01 547.046C1091.56 551.326 1093.45 556.317 1092.6 561.225C1091.75 566.133 1087.37 570.66 1082.4 570.227C1074.5 569.539 1071.2 558.208 1063.38 556.911C1062.69 556.749 1061.97 556.821 1061.32 557.115C1060.16 557.752 1059.96 559.304 1059.89 560.626C1059.57 567.114 1059.3 573.86 1061.83 579.841C1065.54 588.592 1075.12 595.941 1073.11 605.229C1062.28 600.202 1056.66 588.072 1054.1 576.421C1051.55 564.77 1051.12 552.539 1046.54 541.525C1043.06 545.979 1035.75 542.297 1032.57 537.624C1029.56 533.193 1027.71 528.069 1024.79 523.578C1021.86 519.088 1017.39 515.068 1012.03 514.821C1006.42 514.562 1001.55 518.412 997.267 522.049C993.746 525.041 990.131 528.149 988.073 532.284C985.078 538.301 985.862 545.394 985.717 552.112C985.561 559.376 984.021 567.039 979.067 572.356C974.114 577.674 964.97 579.526 959.507 574.733C956.654 572.232 955.273 568.494 954.043 564.906C948.113 547.61 943.174 529.991 939.25 512.134C938.332 516.209 934.751 521.463 931.33 519.062C930.562 518.416 929.94 517.615 929.505 516.712C923.123 505.903 911.305 499.42 899.364 495.532C887.423 491.645 874.859 489.832 863.051 485.559C856.433 483.164 850.113 480.018 844.213 476.182C842.709 478.39 841.831 480.964 841.672 483.63C841.512 486.296 842.078 488.955 843.308 491.327C845.927 495.962 851.855 498.643 856.929 497.023C859.551 496.186 861.765 494.367 864.367 493.469C866.968 492.57 870.46 493.011 871.598 495.516C872.687 497.914 871.041 500.814 871.858 503.318C873.101 507.131 878.856 507.424 880.868 510.894C882.365 513.475 881.133 516.903 878.995 518.987C876.858 521.07 874.006 522.212 871.396 523.662C862.929 528.367 856.909 536.399 849.509 542.648C842.11 548.897 831.67 553.459 822.852 549.451C824.954 538.814 812.275 531.004 809.942 520.416C809.174 516.931 809.572 513.228 808.476 509.832C806.889 504.915 802.524 501.534 798.942 497.807C794.598 493.238 791.214 487.846 788.989 481.949C786.765 476.052 785.744 469.769 785.989 463.471C786.182 459.095 786.987 454.648 785.989 450.382C784.992 446.117 781.458 441.988 777.079 442.181C767.077 442.623 754.477 443.366 749.229 434.846C747.356 431.805 746.541 427.351 749.249 425.021C751.159 423.378 753.979 423.532 756.487 423.779L779.023 425.994C784.294 426.513 789.991 426.94 794.514 424.187C799.037 421.433 800.997 414.124 796.809 410.884C793.749 408.517 788.266 408.645 787.377 404.882C786.636 401.747 790.108 398.191 788.233 395.571C786.888 393.693 783.866 394.214 782.034 395.622C780.202 397.03 778.873 399.089 776.823 400.155C773.227 402.026 768.931 400.246 765.062 399.036C761.193 397.826 756.007 397.724 754.13 401.314C752.031 405.33 755.991 410.593 753.909 414.617C751.155 419.937 741.83 416.909 737.962 421.485C733.525 426.736 740.982 434.567 739.485 441.276C737.575 442.221 735.451 442.656 733.323 442.536C731.194 442.417 729.133 441.747 727.34 440.594C725.577 439.395 724.172 437.742 723.274 435.809C722.376 433.876 722.019 431.736 722.242 429.617C722.612 426.599 724.187 423.518 723.132 420.666C722.279 418.361 719.962 416.988 717.809 415.799L695.909 403.705C693.876 407.475 696.447 412.147 699.661 414.978C702.876 417.809 706.903 419.942 709.014 423.667C710.35 426.249 710.65 429.242 709.852 432.037C709.054 434.832 707.218 437.216 704.72 438.704C704.407 438.92 704.051 439.066 703.676 439.131C703.301 439.196 702.917 439.18 702.549 439.082C702.2 438.877 701.895 438.604 701.653 438.279C701.411 437.954 701.237 437.584 701.141 437.191C697.277 427.309 691.476 417.566 682.201 412.404C672.926 407.242 659.599 408.304 653.517 416.999C652.072 419.065 651.103 421.419 649.844 423.603C643.158 435.204 628.824 440.697 615.432 440.339C614.122 440.411 612.819 440.105 611.678 439.457C609.514 437.963 609.611 434.793 609.943 432.186L611.349 421.119C611.631 418.897 612.04 416.441 613.8 415.054C616.281 413.098 619.86 414.332 623.019 414.287C625.413 414.175 627.714 413.33 629.611 411.867C631.508 410.404 632.909 408.393 633.624 406.108C634.262 403.8 634.258 401.362 633.612 399.056C632.966 396.75 631.703 394.664 629.958 393.022C628.51 391.663 626.567 389.956 627.331 388.123C627.637 387.617 628.049 387.183 628.54 386.852C629.031 386.522 629.589 386.303 630.173 386.211C635.849 384.564 641.845 384.132 647.426 382.189C653.006 380.246 658.418 376.27 659.74 370.514C660.145 368.75 660.329 366.613 661.915 365.739C662.71 365.403 663.565 365.228 664.428 365.225C667.454 364.795 670.208 363.249 672.15 360.891C674.092 358.532 675.08 355.533 674.919 352.484C677.594 350.616 681.341 351.99 683.928 353.976C686.516 355.962 688.8 358.587 691.948 359.443C697.815 361.039 703.485 355.848 709.565 355.823C712.122 355.813 714.769 356.717 717.175 355.851C719.613 354.972 721.07 352.546 722.941 350.754C724.813 348.962 728.097 347.869 729.825 349.799L728.354 338.906C731.317 339.654 734.407 339.76 737.415 339.216C740.423 338.673 743.281 337.493 745.795 335.755L726.774 329.332C726.112 329.167 725.501 328.84 724.995 328.382C723.613 326.894 724.986 324.575 726.111 322.883C728.801 318.837 729.252 312.171 724.829 310.157C721.809 308.782 718.343 310.432 715.445 312.047L701.563 319.783C701.121 322.42 704.348 323.914 706.348 325.69C707.558 326.765 708.414 328.18 708.804 329.75C709.195 331.32 709.1 332.971 708.535 334.487C707.969 336.002 706.957 337.311 705.633 338.242C704.309 339.172 702.734 339.681 701.116 339.701C702.03 340.889 702.665 342.267 702.974 343.733C703.283 345.199 703.258 346.716 702.901 348.171L693.561 348.843C692.512 349.053 691.423 348.841 690.531 348.252C689.532 347.365 689.668 345.811 689.436 344.496C688.877 341.322 685.767 339.098 682.593 338.528C679.419 337.957 676.172 338.688 673.03 339.41C671.695 339.89 670.229 339.856 668.919 339.315C668.167 338.827 667.596 338.107 667.292 337.264C665.914 333.925 667.202 330.001 669.415 327.146C671.628 324.291 674.658 322.203 677.378 319.827C683.885 314.122 688.665 306.712 691.179 298.435C696.321 296.282 701.645 293.357 706.787 291.204C714.714 287.193 723.604 285.471 732.457 286.233L749.871 286.566C755.027 286.664 760.322 286.79 765.089 288.754C769.856 290.719 774.045 294.967 774.374 300.109C774.474 300.692 774.423 301.29 774.228 301.847C774.033 302.404 773.699 302.903 773.258 303.296C772.584 303.663 771.822 303.835 771.056 303.792C766.248 303.961 764.198 305.158 759.39 305.327Z" fill="#EEF5FE"/>
<path d="M620.591 359.866C621.272 359.222 621.761 358.404 622.006 357.5C622.251 356.597 622.243 355.643 621.981 354.744C620.325 354.106 618.524 353.942 616.781 354.271C615.037 354.6 613.42 355.409 612.111 356.607C611.08 357.649 610.191 358.824 609.467 360.1C607.179 363.83 605.155 368.287 606.481 372.457C606.589 372.912 606.787 373.34 607.063 373.718C607.339 374.095 607.688 374.413 608.089 374.654C608.683 374.893 609.324 374.993 609.963 374.948C612.484 374.944 615.002 374.789 617.504 374.484C619.041 374.296 620.825 373.862 621.419 372.434C622.2 370.556 620.31 368.43 620.861 366.473C621.224 365.597 621.773 364.812 622.47 364.17C622.816 363.847 623.082 363.448 623.247 363.004C623.412 362.561 623.471 362.085 623.419 361.614C623.197 360.696 621.79 360.174 621.283 360.973" fill="#EEF5FE"/>
<path d="M633.663 342.93C631.423 342.416 629.115 342.271 626.829 342.501C626.323 342.486 625.822 342.6 625.373 342.832C624.937 343.153 624.622 343.61 624.476 344.13C623.993 345.679 624.111 347.353 624.808 348.818C625.504 350.283 626.728 351.432 628.234 352.037C629.055 352.225 629.842 352.541 630.565 352.973C632.498 354.471 631.265 357.534 631.631 359.951C632.042 362.666 634.671 364.944 634.189 367.646C633.809 369.776 631.534 371.461 631.9 373.593C632.284 375.825 635.119 376.496 637.378 376.675C638.688 376.904 640.036 376.75 641.26 376.231C642.486 375.392 643.358 374.13 643.708 372.687C644.633 369.935 645.022 367.032 644.853 364.134C644.843 362.816 644.512 361.52 643.888 360.359C643.208 359.439 642.454 358.576 641.633 357.778C637.304 352.746 641.862 345.239 633.663 342.93Z" fill="#EEF5FE"/>
<path opacity="0.8" d="M1202.94 737.148C1202.94 737.148 871.37 546.946 728.624 582.984C728.624 582.984 426.1 615.519 391.04 687.095C391.04 687.095 294.873 386.777 259.813 376.766" stroke="#1C2D33" stroke-opacity="0.1" stroke-width="2" stroke-miterlimit="10"/>
<path opacity="0.8" d="M391.04 687.095C446.636 538.938 947.502 374.764 947.502 374.764C876.379 392.783 728.624 582.984 728.624 582.984C728.624 582.984 416.083 355.744 259.812 376.766C259.812 376.766 948.003 399.29 1202.94 737.148" stroke="#1C2D33" stroke-opacity="0.1" stroke-width="2" stroke-miterlimit="10"/>
<path d="M259.813 391.282C267.835 391.282 274.338 384.783 274.338 376.766C274.338 368.75 267.835 362.251 259.813 362.251C251.79 362.251 245.287 368.75 245.287 376.766C245.287 384.783 251.79 391.282 259.813 391.282Z" fill="#1C2D33" fill-opacity="0.1"/>
<path d="M391.04 701.61C399.062 701.61 405.565 695.111 405.565 687.095C405.565 679.078 399.062 672.579 391.04 672.579C383.017 672.579 376.514 679.078 376.514 687.095C376.514 695.111 383.017 701.61 391.04 701.61Z" fill="#1C2D33" fill-opacity="0.1"/>
<path d="M947.502 389.279C955.524 389.279 962.027 382.781 962.027 374.764C962.027 366.747 955.524 360.249 947.502 360.249C939.48 360.249 932.977 366.747 932.977 374.764C932.977 382.781 939.48 389.279 947.502 389.279Z" fill="#1C2D33" fill-opacity="0.1"/>
<path d="M1202.94 751.663C1210.97 751.663 1217.47 745.164 1217.47 737.148C1217.47 729.131 1210.97 722.632 1202.94 722.632C1194.92 722.632 1188.42 729.131 1188.42 737.148C1188.42 745.164 1194.92 751.663 1202.94 751.663Z" fill="#1C2D33" fill-opacity="0.1"/>
<path d="M728.624 597.5C736.646 597.5 743.149 591.001 743.149 582.985C743.149 574.968 736.646 568.469 728.624 568.469C720.602 568.469 714.098 574.968 714.098 582.985C714.098 591.001 720.602 597.5 728.624 597.5Z" fill="#1C2D33" fill-opacity="0.1"/>
</g>
<defs>
<filter id="filter0_d" x="-4" y="0" width="1436" height="1068" filterUnits="userSpaceOnUse" color-interpolation-filters="sRGB">
<feFlood flood-opacity="0" result="BackgroundImageFix"/>
<feColorMatrix in="SourceAlpha" type="matrix" values="0 0 0 0 0 0 0 0 0 0 0 0 0 0 0 0 0 0 127 0"/>
<feOffset dy="4"/>
<feGaussianBlur stdDeviation="2"/>
<feColorMatrix type="matrix" values="0 0 0 0 0 0 0 0 0 0 0 0 0 0 0 0 0 0 0.04 0"/>
<feBlend mode="normal" in2="BackgroundImageFix" result="effect1_dropShadow"/>
<feBlend mode="normal" in="SourceGraphic" in2="effect1_dropShadow" result="shape"/>
</filter>
<clipPath id="clip0">
<rect width="1428" height="1060" fill="white"/>
</clipPath>
</defs>
</svg>
