<svg width="300" height="300" viewBox="0 0 300 300" fill="none" xmlns="http://www.w3.org/2000/svg">
<path fill-rule="evenodd" clip-rule="evenodd" d="M46.008 231.109C44.3161 231.806 42.8694 232.99 41.8516 234.511C40.8339 236.031 40.2911 237.82 40.292 239.65V266.658H13.009V239.468C13.0095 237.025 13.9801 234.683 15.7074 232.955C17.4347 231.228 19.7773 230.257 22.22 230.257H46.008V231.109Z" fill="#1C2D33"/>
<path fill-rule="evenodd" clip-rule="evenodd" d="M42.411 235.212C40.838 238.212 41.276 238.718 41.411 247.868C41.424 249.438 41.504 266.532 41.378 267.016C41.3113 267.218 41.1902 267.397 41.028 267.534C40.476 267.927 42.878 267.801 13.013 267.801C12.7415 267.799 12.4795 267.701 12.2731 267.525C12.0667 267.348 11.9293 267.105 11.885 266.837C11.865 266.588 11.851 239.369 11.898 238.673C12.0541 236.763 12.7386 234.935 13.875 233.393C15.0113 231.85 16.5546 230.654 18.332 229.939C20.939 228.939 21.349 229.201 34.599 229.352C47.044 229.53 46.085 229.477 46.38 229.62C46.491 229.684 46.5826 229.778 46.6451 229.89C46.7076 230.002 46.7386 230.129 46.735 230.257C46.724 231.223 46.729 231.057 46.716 231.228C46.6956 231.347 46.6457 231.458 46.5709 231.552C46.4961 231.646 46.3988 231.72 46.288 231.767L46.279 231.756C44.6581 232.472 43.3046 233.682 42.411 235.212ZM34.029 230.985V231.163L22.22 231.3C20.3544 231.323 18.5529 231.984 17.1155 233.173C15.6781 234.363 14.6915 236.009 14.32 237.837C14.114 238.937 14.154 236.648 14.154 265.511H39.154C39.154 239.018 39.141 237.888 40.176 235.769C41.0819 233.728 42.6382 232.044 44.602 230.98L34.029 230.985Z" fill="#1C2D33"/>
<path fill-rule="evenodd" clip-rule="evenodd" d="M191.685 93.186L192.104 93.504C192.304 94.568 192.19 93.396 191.722 97.162C191.334 99.676 191.1 104.034 191.068 104.412C190.568 113.301 191.884 122.928 199.984 126.696C202.223 127.649 202.738 127.349 203.332 127.963C203.694 128.521 203.546 128.21 203.608 131.874C203.608 136.756 203.958 145.474 203.945 145.887C203.924 146.081 203.836 146.261 203.696 146.396C203.556 146.532 203.374 146.615 203.18 146.631C202.055 146.739 200.938 146.923 199.837 147.181L199.293 147.067L198.98 146.623V146.615L199.086 146.084L199.542 145.761C200.442 145.545 201.274 145.276 202.218 145.091C202.218 144.975 201.26 136.746 201.26 129.601C196.794 128.425 193.234 125.487 190.98 120.516C189.799 117.822 189.081 114.949 188.857 112.016C188.475 108.211 188.586 104.373 189.189 100.597C189.566 98.2661 190.111 95.9655 190.819 93.713L191.16 93.281L191.675 93.191L191.685 93.186Z" fill="#1C2D33"/>
<path fill-rule="evenodd" clip-rule="evenodd" d="M228.681 98.841C230.183 99.2723 231.514 100.16 232.488 101.382C233.463 102.604 234.033 104.099 234.12 105.659C234.133 106.009 234.123 106.359 234.088 106.707C233.971 107.818 233.605 108.888 233.019 109.839C230.834 113.051 227.756 114.131 223.928 114.703C222.771 118.785 221.306 122.773 219.544 126.632C219.665 132.209 219.574 135.979 219.917 142.962C220.93 143.083 221.893 143.253 222.883 143.448C224.098 143.692 223.8 143.589 224.375 143.967L224.504 144.496C224.496 144.507 224.204 144.945 224.204 144.957C223.845 145.107 223.445 145.124 223.075 145.004C218.945 144.44 219.075 144.812 218.525 144.432C218.189 144.113 218.189 144.292 217.641 137.814C217.217 131.523 217.31 130.523 217.226 126.864C217.145 126.428 217.227 125.978 217.457 125.599C219.265 121.69 220.73 117.631 221.836 113.468C222.136 112.206 222.936 112.606 225.088 112.159C227.088 111.819 228.938 110.884 230.398 109.475C230.903 108.92 231.285 108.264 231.519 107.551C231.752 106.838 231.832 106.083 231.753 105.337C231.674 104.591 231.438 103.869 231.06 103.221C230.682 102.573 230.17 102.012 229.56 101.575C228.635 100.867 227.558 100.384 226.414 100.165C225.471 99.9607 224.513 99.832 223.55 99.78L223.05 99.547L222.85 99.064V99.056L223.066 98.576L223.566 98.354C225.286 98.2195 227.017 98.3843 228.681 98.841ZM217.549 125.49L217.512 125.536L217.499 125.548L217.568 125.475L217.549 125.49ZM217.649 125.399C217.534 125.499 217.613 125.431 217.727 125.34L217.649 125.399Z" fill="#1C2D33"/>
<path fill-rule="evenodd" clip-rule="evenodd" d="M198.441 97.938L198.805 98.256L198.934 98.811C198.934 102.64 197.898 103.12 198.123 110.385C201.315 110.358 200.631 110.215 201.523 110.516L201.794 110.96V110.967L201.638 111.467L201.149 111.776C199.858 112.136 198.546 112.418 197.221 112.62C196.919 112.668 196.61 112.596 196.36 112.42C196.207 112.301 196.084 112.148 196.001 111.972C195.564 110.639 195.701 103.929 196.567 100.772C196.567 100.69 197.055 99.492 197.055 99.484C197.096 99.402 197.515 98.524 197.566 98.44L197.966 98.031L198.436 97.946L198.441 97.938Z" fill="#1C2D33"/>
<path fill-rule="evenodd" clip-rule="evenodd" d="M211.5 112.4C211.815 112.881 211.892 112.788 212.057 114.321C212.198 115.856 211.743 117.386 210.786 118.594C210.126 119.503 209.167 120.153 208.078 120.43C207.185 120.639 206.25 120.595 205.381 120.303C204.511 120.01 203.74 119.48 203.155 118.773C202.864 118.368 202.639 117.921 202.487 117.446C202.487 116.724 202.387 117.006 202.726 116.468C204.369 116.868 203.205 116.56 204.831 117.453C205.383 117.831 206.007 118.09 206.664 118.214C207.187 118.252 207.709 118.134 208.165 117.875C208.62 117.617 208.989 117.229 209.225 116.761C209.849 115.675 210.238 114.47 210.367 113.224C210.38 112.996 210.34 113.154 210.574 112.511L211.007 112.241L211.5 112.4Z" fill="#1C2D33"/>
<path fill-rule="evenodd" clip-rule="evenodd" d="M210.958 92.4571C211.531 92.8509 212.037 93.3333 212.458 93.8861C212.736 94.1826 212.913 94.5596 212.964 94.963L212.785 95.4281L212.775 95.433L212.306 95.576C211.969 95.505 211.652 95.3587 211.38 95.1481C210.785 94.8126 210.162 94.528 209.519 94.297C209.023 94.0453 208.481 93.8953 207.926 93.856C207.37 93.8167 206.813 93.8888 206.286 94.0681C206.143 94.1247 206.005 94.1916 205.872 94.268C205.764 94.3311 205.661 94.4013 205.563 94.478C205.563 94.478 204.894 94.8271 204.729 94.9241C204.115 95.2381 204.838 95.0601 203.362 95.3741C203.162 94.4291 203.023 94.414 203.486 93.503C203.742 92.972 204.163 92.5383 204.686 92.267C204.92 92.1283 205.165 92.0083 205.418 91.908C206.324 91.5783 207.292 91.4564 208.251 91.5515C209.21 91.6465 210.135 91.956 210.958 92.4571Z" fill="#1C2D33"/>
<path d="M207.905 104.596C209.073 104.596 210.019 103.359 210.019 101.833C210.019 100.307 209.073 99.0699 207.905 99.0699C206.737 99.0699 205.791 100.307 205.791 101.833C205.791 103.359 206.737 104.596 207.905 104.596Z" fill="#1C2D33"/>
<path fill-rule="evenodd" clip-rule="evenodd" d="M228 99.969C229.483 91.554 230.482 80.424 221.741 75.604C218.273 73.689 214.377 73.187 210.641 72.038C208.013 66.654 202.391 58.257 196.617 56.697C193.253 55.8521 189.71 56.0717 186.477 57.3255C183.243 58.5792 180.478 60.8054 178.563 63.697C173.599 71.059 174.763 81.674 183.417 85.557C190.147 88.575 199.87 87.607 207.159 86.174C209.402 85.733 211.52 87.558 213.703 88.224C214.85 93.765 218.203 97.543 223.661 98.911C225.213 99.3 228 99.969 228 99.969Z" fill="#1C2D33"/>
<path fill-rule="evenodd" clip-rule="evenodd" d="M196.838 55.5511C203.016 57.2101 208.567 65.3261 211.461 71.0691C215.974 72.3171 220.017 72.9431 223.569 75.3691C231.313 80.9261 230.453 90.7691 228.709 100.094C228.595 100.074 227.17 99.8241 228.718 100.094C228.694 100.231 228.631 100.358 228.537 100.46C228.443 100.562 228.322 100.635 228.188 100.67C227.923 100.717 228.276 100.779 224.812 99.9831C222.803 99.6402 220.872 98.938 219.112 97.9101C215.659 95.7491 213.912 92.8361 212.886 88.9721C211.216 88.3721 209.534 87.2151 208.04 87.1401C206.794 87.0851 189.598 91.8751 180.062 84.9201C172.312 78.9201 173.224 67.4991 179.09 61.1311C181.245 58.6539 184.044 56.8214 187.177 55.8366C190.309 54.8518 193.653 54.7529 196.838 55.5511ZM188.938 57.7511C178.431 60.4841 174.356 71.9851 178.216 79.2031C181.657 86.4641 192.639 86.9341 200.645 86.1031C206.861 85.4161 206.886 84.8761 208.673 85.1441C210.615 85.4881 211.981 86.5651 213.9 87.2701C215.055 87.6281 214.3 88.2521 215.765 91.5331C216.234 92.5597 216.843 93.5165 217.575 94.3761C220.283 97.5371 223.675 98.1311 227.417 99.0711C227.417 98.2381 229.355 89.1781 226.643 82.7441C225.923 80.9314 224.77 79.3223 223.286 78.0571C219.868 75.1341 215.016 74.5421 210.662 73.2571C209.231 72.8241 210.175 73.0191 207.162 68.1571C204.75 64.4141 200.73 59.1461 196.462 57.8641C194.007 57.172 191.414 57.1344 188.94 57.7551L188.938 57.7511Z" fill="#010101"/>
<path fill-rule="evenodd" clip-rule="evenodd" d="M109.53 35.579C116.403 38.4023 122.531 42.7758 127.434 48.3581C132.338 53.9404 135.886 60.5804 137.8 67.76C139.903 74.7479 140.383 82.1235 139.205 89.3251C138.026 96.5268 135.22 103.365 131 109.318C126.651 115.47 120.897 120.495 114.216 123.977C110.918 125.723 107.427 127.079 103.816 128.02C97.2596 129.742 90.4168 130.082 83.722 129.019C77.0272 127.955 70.6265 125.512 64.926 121.844C29.242 97.907 38.539 46.487 75.791 34.364C86.8165 30.6913 98.7973 31.1227 109.53 35.579ZM83.71 36.251C76.3335 37.5294 69.3916 40.6248 63.5109 45.2577C57.6302 49.8907 52.9959 55.9153 50.0265 62.7876C47.057 69.66 45.8459 77.1637 46.5025 84.6213C47.159 92.0788 49.6626 99.2555 53.7871 105.503C57.9116 111.751 63.5273 116.873 70.127 120.408C76.7267 123.942 84.1027 125.777 91.5891 125.746C99.0755 125.716 106.436 123.822 113.008 120.235C119.579 116.648 125.153 111.481 129.227 105.2C132.852 99.7594 135.27 93.6054 136.318 87.1521C137.365 80.6987 137.018 74.0959 135.3 67.788L135.281 67.794C128.4 45.431 105.7 32.076 83.71 36.251ZM137.794 67.761C137.581 67.071 137.6 67.125 137.794 67.761V67.761Z" fill="#010101"/>
<path fill-rule="evenodd" clip-rule="evenodd" d="M89.479 62.364C89.798 64.906 90.805 77.519 90.842 78.052C90.942 79.315 91.095 81.818 91.096 81.826C94.04 82.047 101.442 81.647 106.045 81.67C107.321 81.679 107.006 81.636 107.645 81.895L107.875 82.383V82.39L107.675 82.89C106.882 83.27 107.786 83.027 103.982 83.427C98.724 83.98 95.096 84.454 90.17 84.097C89.9373 84.1183 89.7033 84.0744 89.4942 83.9702C89.2851 83.866 89.1091 83.7056 88.986 83.507C88.807 83.145 88.846 83.259 88.738 81.393C88.1 70.419 87.092 66.288 87.384 57.88C87.405 57.361 87.349 57.603 87.614 56.965L88.079 56.735H88.084C88.96 57.076 88.714 56.555 89.479 62.364Z" fill="#010101"/>
<path fill-rule="evenodd" clip-rule="evenodd" d="M57.489 80.617C57.9744 80.6803 58.4547 80.7786 58.926 80.911C59.214 80.984 59.033 80.911 59.709 81.249L59.962 81.654C59.695 82.183 59.862 82.007 59.212 82.412C58.7043 82.6073 58.182 82.7625 57.65 82.876C57.2757 82.9384 56.8962 82.9639 56.517 82.952C53.51 83.08 53.994 83.312 53.105 83.003C52.655 82.855 52.954 83.015 51.93 82.336C52.589 81.352 52.401 81.564 52.782 81.268C53.0272 81.0744 53.3093 80.9329 53.611 80.852C54.8972 80.6901 56.1926 80.6116 57.489 80.617Z" fill="#010101"/>
<path fill-rule="evenodd" clip-rule="evenodd" d="M128.75 78.431C129.095 78.4151 129.441 78.4557 129.773 78.551C129.852 78.57 130.247 78.689 130.293 78.706C130.968 78.946 130.629 78.728 131.587 79.565C130.753 80.447 131.004 80.287 130.321 80.53C129.33 80.924 128.14 80.65 126.388 80.743C126.099 80.7724 125.81 80.6972 125.572 80.531C125.194 80.35 125.489 80.541 124.49 79.82C125.174 78.862 125.021 79.036 125.333 78.798C125.584 78.5611 125.914 78.4267 126.259 78.421C127.156 78.378 127.793 78.4 128.75 78.431Z" fill="#010101"/>
<path fill-rule="evenodd" clip-rule="evenodd" d="M87.733 41.033C87.9374 41.3427 88.1089 41.6728 88.245 42.018C88.3299 42.4932 88.3896 42.9725 88.424 43.454C88.665 45.777 89.009 46.954 88.295 48.861L87.913 49.161H87.9L87.462 48.961L87.089 48.403C86.8475 47.8306 86.6414 47.2438 86.472 46.646C86.372 46.195 86.012 42.915 86.012 42.8C85.9395 42.4166 85.9776 42.0205 86.122 41.658C86.443 40.958 85.985 41.545 86.956 40.39L87.733 41.033Z" fill="#010101"/>
<path fill-rule="evenodd" clip-rule="evenodd" d="M92.058 120.734C91.5966 119.949 91.3356 119.062 91.298 118.152C90.929 115.792 90.98 116.309 91.16 115.627C91.4 115.065 91.234 115.366 91.943 114.44C92.4097 114.717 92.8103 115.092 93.117 115.54C93.345 115.874 93.293 115.812 93.44 116.746C93.774 119.069 93.893 119.128 93.656 120.339C93.564 120.808 93.656 120.596 92.965 121.59C92 120.785 92.169 120.959 92.058 120.734Z" fill="#010101"/>
<path fill-rule="evenodd" clip-rule="evenodd" d="M206.008 202.445C206.008 202.445 205.888 211.255 205.667 215.264C215.477 217.01 225.148 219.382 234.94 221.224C237.74 221.75 240.499 223.19 243.327 222.813C258.4 220.797 273.695 220.761 288.884 220.065C289.475 220.036 290.052 219.881 290.578 219.61C291.104 219.339 291.565 218.958 291.932 218.494C292.298 218.03 292.561 217.493 292.703 216.919C292.845 216.344 292.862 215.746 292.753 215.165C290.699 204.177 287.94 193.38 282.671 183.372C272.351 163.772 252.395 148.845 230.357 145.263C230.043 145.213 229.72 145.25 229.425 145.369C229.13 145.488 228.873 145.686 228.681 145.94C224.075 152.004 217.259 158.04 209.665 159.412C205.165 160.223 197.649 159.556 195.544 154.638C194.783 152.596 194.647 150.374 195.153 148.254C195.208 147.962 195.188 147.661 195.095 147.379C195.002 147.097 194.839 146.843 194.622 146.641C194.404 146.439 194.139 146.296 193.851 146.224C193.563 146.152 193.261 146.155 192.974 146.231C180.574 149.602 168.874 154.6 158.41 162.297C154.689 165.035 150.562 168.037 147.559 171.583C148.827 172.635 149.806 173.993 150.404 175.528C151.002 177.063 151.199 178.726 150.977 180.358C153.058 182.565 154.104 185.475 152.906 188.397C157.641 196.155 147.906 202.714 142.051 206.059C147.071 215.768 159.004 233.818 159.197 234.306C159.253 234.448 160.778 265.765 160.828 265.806C160.839 265.815 160.851 265.822 160.864 265.826C160.878 265.831 160.892 265.832 160.906 265.83C169.924 264.917 179.033 266.024 188.092 265.842C201.181 265.578 214.717 265.05 227.829 265.026C227.856 265.029 227.882 265.022 227.903 265.005C227.924 264.988 227.937 264.964 227.941 264.938C227.944 264.911 227.936 264.884 227.919 264.863C227.903 264.843 227.879 264.829 227.852 264.826C218.83 262.431 206.289 258.403 199.173 252.653C192.473 255.236 184.422 254.009 177.91 251.328C173.175 249.38 169.583 244.274 176.795 242.635C173.645 239.886 170.159 234.552 176.265 233.158C172.747 230.241 167.552 222.57 175.284 221.214C174.384 216.014 173.074 210.701 171.665 205.604C161.573 204.663 162.25 198.156 165.965 196.604C171.385 194.34 179.233 195.698 185.054 195.676C184.534 192.723 184.046 189.744 183.746 186.759C183.646 185.752 183.332 184.196 184.027 183.318C185.506 181.449 188.863 181.126 190.972 180.518C196.978 178.797 203.61 175.89 209.993 176.501C212.655 176.756 215.216 178.776 212.747 181.269C211.292 182.737 208.893 183.239 206.991 183.825C205.01 184.435 203.085 185.225 201.1 185.835C198.033 186.783 194.915 187.408 191.788 188.124C191.905 190.431 192.164 192.729 192.561 195.005C197.436 194.776 202.321 194.977 207.161 195.605C209.205 195.694 211.227 196.062 213.171 196.7C215.248 197.577 216.082 200.112 213.761 201.3C211.488 202.464 208.536 202.447 206.008 202.445Z" fill="#2757CC"/>
<path fill-rule="evenodd" clip-rule="evenodd" d="M205.7 216.785C208.51 216.753 211.318 216.979 214.087 217.458C224.641 219.168 241.615 223.47 244.861 224.168C244.861 223.216 244.79 223.568 245.045 222.874L245.524 222.627H245.534L246.04 222.808C246.396 223.492 246.268 223.12 246.385 224.117C246.463 225.104 246.6 225.617 245.92 225.933C245.642 226.01 245.82 226.017 243.876 225.755C232.326 224.139 224.028 221.227 211.798 219.462C210.531 219.279 207.003 218.601 204.609 218.239C204.392 218.207 204.516 218.254 203.96 217.945L203.784 217.458V217.45L204.024 216.991C204.669 216.74 204.3 216.781 205.7 216.785Z" fill="#1C2D33"/>
<path fill-rule="evenodd" clip-rule="evenodd" d="M246.3 223.89C246.711 223.913 249.572 224.583 250.252 224.751C251.035 224.908 251.789 225.182 252.49 225.563C252.965 225.749 253.395 226.033 253.752 226.397L253.89 226.871V226.879L253.54 227.228L252.891 227.364C250.303 227.364 250.341 227.075 246.632 226.313C246.006 226.249 245.409 226.015 244.905 225.637C244.586 225.437 244.758 225.617 244.08 224.664C245.029 223.992 244.818 224.096 245.186 224.018C245.55 223.928 245.925 223.885 246.3 223.89Z" fill="#1C2D33"/>
<path fill-rule="evenodd" clip-rule="evenodd" d="M289.294 222.615C289.638 223.285 289.536 222.751 289.7 225.415C289.832 228.385 289.653 231.361 289.165 234.294C287.941 241.693 284.443 248.526 279.157 253.845C271.666 261.617 260.949 265.567 250.257 266.089C239.087 266.589 230.018 263.611 219.778 259.179C213.121 256.287 205.886 253.165 200.458 248.614C197.871 249.54 195.182 250.152 192.449 250.434C186.607 250.992 180.381 250.128 176.09 246.234H176.085L175.846 245.744L176.002 245.234C176.016 245.225 176.475 244.996 176.49 244.989C177.076 245.167 176.972 245.111 177.158 245.267C177.71 245.701 178.295 246.092 178.908 246.436C185.174 249.775 193.129 248.785 199.776 246.393C202.193 245.488 200.067 246.854 210.544 252.365C216.027 255.146 226.305 259.742 233.58 261.798C262.087 269.61 286.148 253.957 288.105 228.85C288.405 223.138 287.854 223.95 288.285 222.696L288.773 222.447L289.294 222.615Z" fill="#1C2D33"/>
<path fill-rule="evenodd" clip-rule="evenodd" d="M175.377 224.607C175.903 224.924 177.077 225.467 177.527 225.713C177.95 225.941 177.827 225.889 178.26 226.139C179.951 227.114 181.81 227.763 183.74 228.053C185.544 228.289 187.374 228.236 189.161 227.898C190.402 227.622 189.613 227.654 190.607 227.664L191.007 227.997L191.012 228.004V228.524C190.822 228.854 190.527 229.111 190.174 229.252C189.076 229.863 187.873 230.264 186.628 230.432C183.439 230.646 180.258 229.926 177.472 228.36C176.637 227.959 175.889 227.398 175.272 226.707C174.972 226.388 174.506 225.791 174.424 225.669L174.236 225.13L174.369 224.668V224.662L174.815 224.483L175.377 224.607Z" fill="#1C2D33"/>
<path fill-rule="evenodd" clip-rule="evenodd" d="M176.735 236.047C181.012 236.726 181.552 237.647 187.112 237.047C188.289 236.938 189.458 236.754 190.612 236.498L191.193 236.547L191.561 236.902V236.909L191.528 237.424C191.134 237.851 191.304 237.803 190.041 238.408C188.745 239.036 187.341 239.412 185.905 239.516C184.355 239.647 182.795 239.593 181.258 239.355C179.382 239.233 177.59 238.531 176.132 237.344L175.791 236.878L175.777 236.404V236.397L176.145 236.097L176.717 236.045L176.735 236.047Z" fill="#1C2D33"/>
<path fill-rule="evenodd" clip-rule="evenodd" d="M205.161 208.542H205.17L205.47 208.987C205.473 209.334 205.359 209.672 205.147 209.947C203.167 212.82 200.34 215.005 197.06 216.197C192.317 218.137 187.35 219.408 182.253 218.872C180.511 218.62 178.835 218.028 177.321 217.131C177.14 217.031 177.235 217.119 176.821 216.612V216.1L177.203 215.767C177.803 215.746 177.693 215.728 177.803 215.761C179.288 216.189 180.815 216.453 182.357 216.548C186.319 216.865 190.166 216.508 196.151 214.057C198.669 213.079 201.012 211.698 203.087 209.968C204.638 208.387 203.812 208.979 204.634 208.455L205.161 208.542Z" fill="#1C2D33"/>
<path fill-rule="evenodd" clip-rule="evenodd" d="M103.968 190.875H103.977L104.332 191.275L104.323 191.821C100.769 201.282 99.5016 211.449 100.623 221.493C101.049 225.101 101.994 228.628 103.428 231.966C106.656 239.344 112.455 243.637 120.505 244.749C131.045 246.204 145.476 241.449 154.278 233.305C155.319 232.34 154.878 232.612 155.599 232.311L156.111 232.511L156.323 233.011L156.123 233.531C145.205 244.975 124.576 251.724 111.063 244.075C95.17 235.025 95.063 206.875 103.026 191.213C103.033 191.208 103.434 190.855 103.44 190.849L103.968 190.875Z" fill="#1C2D33"/>
<path fill-rule="evenodd" clip-rule="evenodd" d="M147.09 196.282V196.288L147.265 196.762L147.086 197.29C146.207 198.431 145.216 199.482 144.129 200.427C143.005 201.315 141.795 202.089 140.518 202.739C140.164 202.918 140.464 202.777 139.689 203.149C136.932 204.397 137.181 203.985 137.22 204.34C138.132 210.53 138.425 209.891 139.537 216.81C139.961 219.773 139.937 219.228 139.772 219.954L139.334 220.262H139.325L138.805 220.142L138.478 219.676C137.586 216.232 135.537 210.644 134.778 203.455C134.751 202.312 135.557 202.248 136.523 201.928C137.53 201.585 138.509 201.166 139.453 200.676C141.694 199.383 143.855 197.955 145.923 196.4C146.132 196.238 145.988 196.308 146.614 196.1L147.09 196.282Z" fill="#1C2D33"/>
<path fill-rule="evenodd" clip-rule="evenodd" d="M142.415 179.016H142.424L142.641 179.485L142.498 180.043C141.51 181.648 140.238 183.059 138.744 184.207C136.954 185.582 135.015 186.751 132.964 187.694C131.942 188.234 130.818 188.555 129.664 188.635C129.269 188.723 128.857 188.698 128.476 188.562L128.153 188.209C128.153 188.198 128.229 187.744 128.231 187.733L128.631 187.322C128.657 187.312 130.215 186.405 130.28 186.371C132.144 185.571 133.942 184.627 135.659 183.547C136.907 182.73 140.059 180.286 141.121 179.347C141.473 179.033 141.278 179.157 141.914 178.874L142.415 179.016Z" fill="#1C2D33"/>
<path fill-rule="evenodd" clip-rule="evenodd" d="M144.814 186.843V186.849L145.035 187.315L144.901 187.876C143.957 189.474 142.765 190.912 141.369 192.135C139.68 193.605 137.78 194.813 135.732 195.717C134.671 196.249 133.497 196.515 132.31 196.492C131.897 196.544 131.477 196.475 131.103 196.292C131.095 196.281 130.825 195.911 130.818 195.899L130.951 195.443L131.393 195.077C131.793 194.922 133.129 194.247 133.438 194.122C135.311 193.469 137.07 192.527 138.652 191.331C139.374 190.788 142.796 187.885 143.778 186.955L144.307 186.712L144.814 186.843Z" fill="#1C2D33"/>
<path fill-rule="evenodd" clip-rule="evenodd" d="M140.536 170.492V170.498L140.707 171.009L140.477 171.523C139.87 171.878 133.358 179.669 122.686 182.34C116.836 183.813 109.338 183.356 106.086 178.375C105.747 177.842 105.471 177.271 105.262 176.675C105.222 176.558 105.242 176.675 105.262 176.064L105.612 175.683H105.621H106.133C106.584 176.072 106.516 175.983 106.579 176.094C106.693 176.127 107.87 179.239 113.667 180.454C122.567 182.234 132.425 176.123 139.509 170.454L140.048 170.28L140.536 170.492Z" fill="#1C2D33"/>
<path fill-rule="evenodd" clip-rule="evenodd" d="M115.758 181.824C109.822 170.841 108.458 166.024 106.607 162.833C108.118 161.033 109.642 159.27 111.282 157.586C118.061 158.48 124.882 159.164 131.656 160.143C132.577 164.999 135.064 169.33 136.356 174.056C133.228 177.256 129.024 178.994 124.823 180.251C121.987 181.256 118.999 181.767 115.99 181.762" fill="#1C2D33"/>
<path fill-rule="evenodd" clip-rule="evenodd" d="M111.433 156.433C118.596 157.367 124.242 157.933 130.542 158.811C132.042 159.019 132.07 158.983 132.458 159.302C132.877 159.77 132.721 159.824 133.079 161.214C134.236 165.682 136.169 169.133 137.335 173.293C137.505 173.893 137.578 174.044 137.4 174.53C137.02 175.058 136.56 175.524 136.036 175.911C134.756 176.984 133.352 177.899 131.854 178.638C127.587 180.653 123.017 181.952 118.328 182.482C117.529 182.541 116.726 182.537 115.928 182.469C115.382 182.517 115.701 182.551 115.128 182.163C115.009 181.95 111.373 175.836 108.628 169.992C107.655 167.911 107.162 166.372 105.928 163.992C105.731 163.714 105.579 163.407 105.477 163.082C105.356 162.311 105.753 162.043 106.292 161.407C107.806 159.615 108.658 158.676 109.677 157.583C110.407 156.8 110.636 156.39 111.433 156.433ZM111.664 158.864C109.615 161.041 108.164 162.797 108.012 162.964C109.001 164.67 110.62 169.245 116.168 181.035C120.482 181.066 127.701 178.52 131.035 176.656C132.501 175.861 133.856 174.876 135.065 173.728C135.065 173.044 132.103 166.41 130.911 162.128V162.118C130.811 161.718 130.783 161.605 130.686 161.193C130.685 161.078 111.717 158.808 111.664 158.864Z" fill="#1C2D33"/>
<path fill-rule="evenodd" clip-rule="evenodd" d="M131.168 174.992C130.614 174.532 130.839 174.9 129.211 172.337C129.141 172.209 128.728 171.549 128.479 171.037C128.143 170.337 127.21 168.337 126.922 167.617C125.945 165.362 125.954 165.625 127 164.092C127.361 163.547 127.68 163.112 127.728 163.027C128.259 162.409 128.848 161.844 129.487 161.338L130.021 161.103L130.482 161.184H130.491L130.703 161.601C130.622 162.322 130.744 161.984 129.975 163.728C129.58 164.435 129.143 165.119 128.667 165.775C130.139 169.424 130.388 168.965 131.993 173.961L132.007 174.584L131.7 175H131.691L131.168 174.992Z" fill="white"/>
<path fill-rule="evenodd" clip-rule="evenodd" d="M210.457 178.171L210.747 178.598C210.747 179.481 210.205 179.392 205.897 180.622C205.897 180.899 203.143 180.904 188.24 185.403C188.273 186.451 188.424 190.003 188.424 195.174C188.424 199.391 188.562 198.453 188.267 199.274L187.788 199.527L187.281 199.341L187.014 198.833C187.014 198.321 186.157 192.974 185.95 186.367C185.887 184.325 185.839 184.467 186.01 184.033C186.356 183.45 186.066 183.61 191.339 182.056C204.973 178.104 205.455 178.674 205.455 178.502C205.572 178.487 209.01 178.02 209.927 178.02L210.457 178.171Z" fill="#1C2D33"/>
<path fill-rule="evenodd" clip-rule="evenodd" d="M198.648 198.539C204.902 198.626 203.782 198.684 210.231 198.684L210.765 198.884L211.009 199.364V199.372L210.821 199.878L210.314 200.135C210.314 200.249 203.914 200.735 198.34 200.862C178.694 200.952 177.84 202.048 171.107 201.395C169.745 201.263 168.282 200.995 168.164 200.98L167.685 200.701L167.52 200.211V200.2L167.773 199.748C168.107 199.56 168.495 199.493 168.873 199.557C173.681 199.525 186.745 198.367 198.648 198.539Z" fill="#1C2D33"/>
<path fill-rule="evenodd" clip-rule="evenodd" d="M203.9 210.523C204.024 206.853 204.4 203.198 204.59 199.531C197.963 199.607 191.34 199.861 184.718 199.915C181.305 199.859 177.892 199.988 174.493 200.303C175.64 205.794 176.948 211.177 178.265 216.617C180.485 216.973 182.608 217.836 184.888 217.783C189.719 217.671 195.062 215.655 199.239 213.404C200.955 212.657 202.58 211.718 204.084 210.604" fill="#1C2D33"/>
<path fill-rule="evenodd" clip-rule="evenodd" d="M205.589 199.061C205.728 199.428 205.725 199.413 205.58 200.972C204.629 211.118 204.492 209.681 204.801 210.645C204.556 211.169 204.619 211.113 204.355 211.335C203.121 212.287 201.787 213.099 200.375 213.759C198.585 214.794 196.732 215.716 194.826 216.52C193.026 217.272 191.166 217.874 189.267 218.32C186.176 219.174 182.903 219.109 179.849 218.132C177.714 217.632 177.869 217.832 177.403 217.397C177.174 217.091 177.325 217.859 175.423 209.759C175.081 208.329 174.314 205.026 173.682 202.086C173.334 200.461 173.172 200.235 173.548 199.62C173.953 199.143 174.215 199.158 174.842 199.09C176.85 198.883 178.514 198.821 180.542 198.783C206.5 198.38 205.053 198.1 205.589 199.061ZM175.9 201.329C176.568 204.604 178.412 212.293 179.221 215.61C182.571 216.258 183.187 216.957 187.041 216.51C193.016 215.789 198.135 212.959 201.069 211.593C201.81 211.257 202.519 210.855 203.188 210.393C203.188 205.993 203.369 203.577 203.45 200.686C199.36 200.843 178.859 201.066 175.9 201.329Z" fill="#1C2D33"/>
<path fill-rule="evenodd" clip-rule="evenodd" d="M90.573 161.118C90.7379 161.146 90.8875 161.232 90.9953 161.36C91.103 161.489 91.1621 161.651 91.162 161.818C91.653 209.402 91.707 207.397 91.162 207.938C90.9625 208.107 90.7096 208.201 90.448 208.202C87.879 208.213 42.053 208.302 41.51 208.162C41.2588 208.069 41.0471 207.892 40.91 207.662C40.678 207.155 40.759 210.429 40.759 161.821C40.7597 161.553 40.8543 161.295 41.0263 161.09C41.1983 160.885 41.4367 160.747 41.7 160.7C45.664 160.345 90.459 161.108 90.573 161.118ZM43.044 162.964V205.947C68.244 205.947 5.181 205.976 89.344 205.981C89.457 206.039 89.251 207.775 89.735 162.536C63.179 163.029 64.139 162.964 43.044 162.964Z" fill="#1C2D33"/>
<path fill-rule="evenodd" clip-rule="evenodd" d="M105.027 236.884C106.048 237.232 105.356 236.858 106.317 237.41L106.538 237.839V237.846L106.294 238.261L105.732 238.545C102.915 239.108 105.232 238.888 100.353 239.018C99.7942 239.116 99.2191 239.053 98.695 238.836C98.039 238.536 98.371 238.791 97.465 237.921C98.327 237.021 98.026 237.268 98.653 236.956C99.1639 236.715 99.7324 236.624 100.293 236.693C103.961 236.6 103.575 236.566 105.027 236.884Z" fill="#1C2D33"/>
<path fill-rule="evenodd" clip-rule="evenodd" d="M93.714 252.525C94.1038 252.476 94.4997 252.525 94.866 252.667C97.5956 254.045 100.219 255.624 102.713 257.392C104.896 258.873 105.421 258.992 105.274 260.03C105.217 260.291 105.07 260.523 104.86 260.687C104.518 260.911 104.46 260.911 103.777 260.999C99.52 261.553 95.328 260.691 90.983 260.257C82.067 259.393 76.467 257.728 69.222 256.679C66.922 256.337 66.88 256.288 65.791 256.064L65.335 255.746L65.225 255.212C65.232 255.2 65.53 254.769 65.538 254.757L66.026 254.657L66.044 254.643C69.983 253.843 73.9713 253.308 77.982 253.043C82 252.744 90.068 252.516 93.714 252.525ZM93.314 254.85C86.723 254.864 79.928 255.256 76.361 255.398C72.845 255.541 73.153 255.458 74.44 255.653C76.74 256.005 81.586 256.753 84.499 257.141C84.499 257.254 97.916 258.826 100.719 258.854C98.6507 257.442 96.5043 256.149 94.29 254.98C94 254.831 94.169 254.848 93.314 254.85ZM93.622 254.618L93.636 254.624L93.618 254.609L93.622 254.618Z" fill="#1C2D33"/>
<path fill-rule="evenodd" clip-rule="evenodd" d="M85.573 239.7C88.0548 239.671 90.5358 239.804 93 240.1C94.363 240.234 93.976 240.144 94.644 240.45L94.866 240.93V240.937L94.644 241.417L94.11 241.657C93.63 241.657 91.91 241.936 88.155 242.029C85.904 242.088 86.803 241.869 78.571 242.173C76.4571 242.387 74.3218 242.186 72.285 241.581L71.819 241.264L71.663 240.794V240.786L71.925 240.367C73.469 239.785 84.013 239.694 85.573 239.7Z" fill="#1C2D33"/>
<path fill-rule="evenodd" clip-rule="evenodd" d="M47.8 248.494C48.484 248.516 49.049 248.644 51.383 248.707C54.829 248.781 55.792 248.562 57.789 248.647C61.009 248.796 60.489 248.747 61.189 249.014L61.451 249.463V249.471L61.251 249.952L60.717 250.244C57.7213 250.951 54.6387 251.218 51.566 251.037C47.41 250.951 46.818 250.631 45.449 250.037C45.299 249.974 45.397 250.037 44.897 249.617L44.768 249.158C44.775 249.146 45.045 248.784 45.053 248.773L45.601 248.588C45.726 248.578 47.525 248.481 47.8 248.494Z" fill="#1C2D33"/>
<path fill-rule="evenodd" clip-rule="evenodd" d="M294.724 263.91L295 264.41V264.418L294.733 264.926L294.088 265.148L287.507 265.629L258.774 266.046L243.755 266.246L229.344 266.418L211.051 266.589L189.479 266.789L141.268 267.241L94.2 267.683L74.06 267.872L57.76 268.025L50.323 268.066L42.272 268.09L26.093 268.1L6.17 268.071H5.718L5.218 267.862L5 267.367V267.359L5.207 266.859L5.707 266.641L6.163 266.631L26.081 266.223L42.256 265.923L50.306 265.796L57.749 265.696L74.043 265.543L94.183 265.354L141.247 264.913L189.462 264.461L211.03 264.261L229.323 264.089L243.738 263.989L258.757 263.906L287.491 263.784L294.072 263.693L294.724 263.91Z" fill="#1C2D33"/>
<path fill-rule="evenodd" clip-rule="evenodd" d="M18.843 237.225C25.926 237.359 26.343 237.367 29.111 237.943C29.455 237.984 29.782 238.116 30.059 238.324L30.259 238.796V238.804L30.002 239.248C29.7044 239.423 29.3654 239.516 29.02 239.517C27.1192 239.746 25.2007 239.793 23.291 239.655C21.4823 239.692 19.673 239.626 17.872 239.455C16.251 239.083 16.366 239.072 15.842 238.755L15.642 238.337V238.33L15.859 237.92L16.367 237.635C17.1703 237.388 18.003 237.25 18.843 237.225Z" fill="white"/>
<path fill-rule="evenodd" clip-rule="evenodd" d="M36.766 249.36C39.066 249.53 38.466 249.387 39.266 249.711L39.519 250.177V250.185L39.302 250.669L38.759 250.935C33.117 251.718 34.389 251.487 23.885 251.794C22.2245 251.914 20.5555 251.82 18.919 251.514L18.407 251.268L18.18 250.834V250.826L18.371 250.375L18.863 250.09C19.263 250.029 19.307 249.96 20.719 249.713C21.7418 249.53 22.7802 249.449 23.819 249.47C34.387 249.167 33.116 249.187 36.766 249.36Z" fill="white"/>
<path fill-rule="evenodd" clip-rule="evenodd" d="M37.269 260.9C37.869 261.327 37.721 261.144 37.953 261.686C36.953 262.486 37.316 262.286 36.553 262.486C35.709 262.741 34.953 262.697 32.269 262.75C32.0459 262.779 31.819 262.755 31.607 262.68C30.785 262.344 30.87 262.333 30.14 261.587C30.911 260.836 30.779 260.877 31.59 260.514C31.921 260.408 31.719 260.44 32.616 260.414C35.438 260.359 35.634 260.238 37.269 260.9Z" fill="white"/>
<path fill-rule="evenodd" clip-rule="evenodd" d="M235.147 194.964C236.09 195.582 235.827 195.295 236.57 199.159C237.827 205.927 238.558 208.908 239.154 212.707C239.891 217.43 239.94 216.946 239.232 217.499H239.223L238.703 217.399L238.348 216.942C238.348 216.827 238.329 216.981 237.448 214.1C235.894 208.731 236.105 208.816 234.159 198.943C233.659 196.222 233.984 197.115 232.916 196.002C232.704 195.788 232.267 195.355 232.165 195.256C231.824 194.902 231.438 194.594 231.018 194.338L230.654 193.912L230.627 193.412V193.405L230.991 193.058L231.548 193.013C232.848 193.458 234.064 194.118 235.147 194.964Z" fill="#1C2D33"/>
<path fill-rule="evenodd" clip-rule="evenodd" d="M122.855 164.079C125.963 164.49 124.771 164.234 126.443 164.691C127.57 165.085 127.065 164.803 127.801 165.286L127.981 165.71V165.717L127.756 166.117L127.249 166.371C126.292 166.611 125.3 166.676 124.32 166.563C122.776 166.386 117.168 165.633 115.638 165.294C112.884 164.694 113.505 164.908 112.811 164.519L112.622 164.051V164.043L112.861 163.597C113.225 163.388 113.643 163.292 114.061 163.322C117.169 163.122 117.914 163.4 122.855 164.079Z" fill="white"/>
<path fill-rule="evenodd" clip-rule="evenodd" d="M160.317 205.605L160.759 205.816L161.007 206.31C161.529 210.379 161.386 207.178 161.473 220.519C161.502 223.372 161.371 226.225 161.081 229.063L160.846 229.607L160.372 229.835H160.367L159.893 229.608C159.642 229.028 159.651 229.424 159.414 226.219C159.192 223.103 159.142 223.443 159.142 211.286C159.137 209.612 159.293 207.941 159.607 206.296L159.865 205.807L160.312 205.607L160.317 205.605Z" fill="#1C2D33"/>
<path d="M66.795 167.284C69.8475 167.284 72.322 164.809 72.322 161.757C72.322 158.705 69.8475 156.23 66.795 156.23C63.7425 156.23 61.268 158.705 61.268 161.757C61.268 164.809 63.7425 167.284 66.795 167.284Z" fill="#2757CC"/>
<path fill-rule="evenodd" clip-rule="evenodd" d="M67.439 155.492C68.5494 155.526 69.631 155.853 70.5739 156.441C71.5168 157.028 72.2873 157.855 72.8071 158.837C73.3269 159.819 73.5775 160.921 73.5334 162.031C73.4893 163.141 73.1521 164.22 72.556 165.157C71.9785 166.136 71.1613 166.951 70.1814 167.526C69.2015 168.101 68.0912 168.418 66.9553 168.445C65.8193 168.472 64.6951 168.21 63.6887 167.682C62.6823 167.155 61.8269 166.38 61.203 165.43C60.6256 164.56 60.2701 163.561 60.1673 162.522C60.0645 161.483 60.2177 160.434 60.6133 159.467C61.009 158.501 61.6353 157.646 62.4374 156.977C63.2395 156.308 64.1931 155.846 65.215 155.63C65.9489 155.501 66.6948 155.455 67.439 155.492ZM66.799 156.955C65.6643 157.024 64.5935 157.504 63.7861 158.304C62.9787 159.105 62.4896 160.171 62.41 161.305C62.41 166.498 68.304 167.71 70.61 163.881C70.7472 163.634 70.8598 163.374 70.946 163.105C71.1315 162.425 71.1683 161.713 71.0541 161.018C70.9398 160.323 70.677 159.66 70.2837 159.076C69.8904 158.491 69.3757 157.998 68.7747 157.63C68.1737 157.262 67.5006 157.028 66.801 156.944L66.799 156.955ZM66.854 155.512H66.877H66.854Z" fill="#1C2D33"/>
<path fill-rule="evenodd" clip-rule="evenodd" d="M83.239 199.282C87.982 199.451 90.002 199.143 94.227 199.463C96.717 199.657 96.218 199.586 96.816 199.863L97.027 200.323V200.331L96.827 200.793C96.189 201.107 96.688 200.993 94.261 201.259C90.8411 201.597 87.4025 201.707 83.968 201.59C82.517 209.418 81.014 214.99 76.599 221.86C76.359 222.233 76.499 222.095 75.954 222.486L75.43 222.427L75.11 222C75.182 221.333 75.131 221.521 75.326 221.134C76.3083 219.159 77.18 217.131 77.937 215.059C82.504 202.625 81.182 200.433 82.331 199.481C82.5979 199.303 82.9221 199.232 83.239 199.282Z" fill="#1C2D33"/>
<path fill-rule="evenodd" clip-rule="evenodd" d="M85.546 229.267C87.5955 229.281 89.5951 229.901 91.294 231.047C92.7173 232.001 93.8779 233.297 94.669 234.817C96.19 237.906 95.862 238.875 95.862 248.439C95.842 254.56 95.895 254.01 95.701 254.439C95.5755 254.663 95.3767 254.838 95.1378 254.933C94.899 255.029 94.6346 255.039 94.389 254.963C93.943 254.781 94.143 254.808 93.863 254.804C89.679 254.768 81.407 254.956 73.429 255.51C78.209 256.386 81.577 257.017 85.564 257.629C94.464 258.963 95.342 258.375 95.434 259.521H95.42C95.52 267.584 95.546 266.787 95.475 267.082C95.4147 267.263 95.2925 267.416 95.13 267.516C95.016 267.572 96.93 267.951 40.292 267.951C40.0229 267.951 39.7622 267.857 39.5559 267.684C39.3496 267.511 39.2108 267.271 39.164 267.006C39.15 266.806 39.122 239.661 39.182 238.812C39.3771 236.433 40.3848 234.193 42.036 232.469C43.6872 230.744 45.8813 229.641 48.25 229.343C49.312 229.225 85.432 229.266 85.546 229.267ZM79.181 231.554C48.5 231.554 48.718 231.254 46.481 232.154C45.4125 232.59 44.4494 233.25 43.6562 234.088C42.8629 234.927 42.2577 235.925 41.881 237.016C41.26 238.599 41.439 238.337 41.439 265.67C70.287 265.67 65.594 265.614 93.896 265.985L93.91 266.002V260.15C87.631 259.429 88.879 259.899 74.129 257.459C70.529 256.869 66.81 256.604 65.595 256.246C65.3917 256.166 65.2218 256.019 65.1136 255.83C65.0055 255.64 64.9656 255.419 65.0007 255.203C65.0358 254.988 65.1437 254.791 65.3064 254.645C65.4692 254.499 65.6769 254.414 65.895 254.403C66.011 254.397 76.048 252.647 93.519 252.572C93.642 252.572 93.569 253.546 93.569 239.502C93.5301 237.726 92.9107 236.012 91.8055 234.621C90.7003 233.231 89.1702 232.241 87.449 231.802C86.144 231.458 85.377 231.554 79.181 231.554ZM93.652 254.584L93.661 254.59L93.647 254.577L93.652 254.584Z" fill="#1C2D33"/>
<path fill-rule="evenodd" clip-rule="evenodd" d="M192.072 60.308C192.777 60.3377 193.473 60.477 194.135 60.721C194.574 60.881 194.407 60.795 194.909 61.198L195.038 61.652V61.659L194.761 62.037C193.902 62.345 194.403 62.153 193.269 62.337C191.537 62.4461 189.852 62.9404 188.336 63.784C187.408 64.3185 186.56 64.9817 185.817 65.754C184.612 66.9394 183.547 68.2594 182.644 69.688L182.211 70.056L181.705 70.065H181.695L181.359 69.682C181.288 69.2384 181.365 68.7837 181.58 68.389C182.123 66.801 183.014 65.3541 184.187 64.154C185.079 63.2402 186.091 62.4511 187.194 61.808C188.672 60.9156 190.348 60.4004 192.072 60.308Z" fill="white"/>
<path fill-rule="evenodd" clip-rule="evenodd" d="M180.139 77.359C180.069 77.247 180.008 77.13 179.955 77.009C179.738 76.2075 179.629 75.3804 179.632 74.55C179.682 74.4288 179.747 74.3142 179.825 74.209H179.83C179.9 74.1151 179.977 74.0262 180.06 73.943C181.768 74.037 181.36 73.943 181.672 74.255C181.71 74.3111 181.751 74.3646 181.796 74.415C181.819 74.454 181.836 74.478 181.861 74.515C181.919 75.1669 182.022 75.8141 182.169 76.452C182.188 77.1898 181.981 77.9158 181.575 78.532C180.6 77.951 180.679 78.073 180.139 77.359Z" fill="white"/>
<path fill-rule="evenodd" clip-rule="evenodd" d="M183.464 155.7L183.842 156.063C183.842 156.075 183.824 156.583 183.823 156.594L183.436 156.999C182.111 157.643 179.994 158.746 178.863 159.358C175.216 161.418 174.654 161.373 169.436 164.609C165.073 167.309 163.76 168.657 159.736 170.982L159.197 171.102C159.182 171.095 158.76 170.885 158.746 170.876L158.622 170.395L158.852 169.895C158.852 169.779 161.068 167.702 161.523 167.307C166.583 163.42 172.074 160.13 177.887 157.501C182.387 155.677 182.902 155.787 182.902 155.673L183.464 155.7Z" fill="white"/>
</svg>
