<svg width="34" height="34" viewBox="0 0 34 34" fill="none" xmlns="http://www.w3.org/2000/svg">
<path d="M24.0833 2.83337H9.91659C6.00457 2.83337 2.83325 6.00469 2.83325 9.91671V24.0834C2.83325 27.9954 6.00457 31.1667 9.91659 31.1667H24.0833C27.9953 31.1667 31.1666 27.9954 31.1666 24.0834V9.91671C31.1666 6.00469 27.9953 2.83337 24.0833 2.83337Z" stroke="#2757CC" stroke-width="2" stroke-linecap="round" stroke-linejoin="round"/>
<path d="M22.6666 16.1076C22.8414 17.2866 22.64 18.4907 22.0911 19.5487C21.5421 20.6066 20.6735 21.4646 19.6089 22.0004C18.5442 22.5363 17.3377 22.7228 16.1609 22.5335C14.9842 22.3441 13.8971 21.7885 13.0543 20.9457C12.2115 20.1029 11.6559 19.0158 11.4665 17.839C11.2771 16.6623 11.4637 15.4557 11.9995 14.3911C12.5354 13.3264 13.3933 12.4579 14.4513 11.9089C15.5093 11.3599 16.7134 11.1586 17.8924 11.3334C19.0951 11.5117 20.2084 12.0721 21.0681 12.9318C21.9278 13.7915 22.4882 14.9049 22.6666 16.1076Z" stroke="#2757CC" stroke-width="2" stroke-linecap="round" stroke-linejoin="round"/>
<path d="M24.7917 9.20837H24.8059" stroke="#2757CC" stroke-width="2" stroke-linecap="round" stroke-linejoin="round"/>
</svg>
