<svg width="172" height="142" viewBox="0 0 172 142" fill="none" xmlns="http://www.w3.org/2000/svg">
<g filter="url(#filter0_d)">
<rect x="4" width="164" height="134" rx="4" fill="white"/>
<path d="M104.75 58.25C104.75 59.3551 104.311 60.4149 103.53 61.1963C102.748 61.9777 101.688 62.4167 100.583 62.4167H75.5833L67.25 70.75V37.4167C67.25 36.3116 67.689 35.2518 68.4704 34.4704C69.2518 33.689 70.3116 33.25 71.4167 33.25H100.583C101.688 33.25 102.748 33.689 103.53 34.4704C104.311 35.2518 104.75 36.3116 104.75 37.4167V58.25Z" stroke="#2757CC" stroke-width="3" stroke-linecap="round" stroke-linejoin="round"/>
<path d="M44.494 96.402L42.19 98.742V102H40.39V89.4H42.19V96.438L49.03 89.4H51.082L45.7 95.07L51.424 102H49.318L44.494 96.402ZM56.7396 102.108C55.7916 102.108 54.9396 101.898 54.1836 101.478C53.4276 101.058 52.8336 100.482 52.4016 99.75C51.9816 99.006 51.7716 98.166 51.7716 97.23C51.7716 96.294 51.9816 95.46 52.4016 94.728C52.8336 93.984 53.4276 93.408 54.1836 93C54.9396 92.58 55.7916 92.37 56.7396 92.37C57.6876 92.37 58.5336 92.58 59.2776 93C60.0336 93.408 60.6216 93.984 61.0416 94.728C61.4736 95.46 61.6896 96.294 61.6896 97.23C61.6896 98.166 61.4736 99.006 61.0416 99.75C60.6216 100.482 60.0336 101.058 59.2776 101.478C58.5336 101.898 57.6876 102.108 56.7396 102.108ZM56.7396 100.596C57.3516 100.596 57.8976 100.458 58.3776 100.182C58.8696 99.894 59.2536 99.498 59.5296 98.994C59.8056 98.478 59.9436 97.89 59.9436 97.23C59.9436 96.57 59.8056 95.988 59.5296 95.484C59.2536 94.968 58.8696 94.572 58.3776 94.296C57.8976 94.02 57.3516 93.882 56.7396 93.882C56.1276 93.882 55.5756 94.02 55.0836 94.296C54.6036 94.572 54.2196 94.968 53.9316 95.484C53.6556 95.988 53.5176 96.57 53.5176 97.23C53.5176 97.89 53.6556 98.478 53.9316 98.994C54.2196 99.498 54.6036 99.894 55.0836 100.182C55.5756 100.458 56.1276 100.596 56.7396 100.596ZM69.1734 92.37C70.3854 92.37 71.3454 92.724 72.0534 93.432C72.7734 94.128 73.1334 95.154 73.1334 96.51V102H71.4054V96.708C71.4054 95.784 71.1834 95.088 70.7394 94.62C70.2954 94.152 69.6594 93.918 68.8314 93.918C67.8954 93.918 67.1574 94.194 66.6174 94.746C66.0774 95.286 65.8074 96.066 65.8074 97.086V102H64.0794V92.46H65.7354V93.9C66.0834 93.408 66.5514 93.03 67.1394 92.766C67.7394 92.502 68.4174 92.37 69.1734 92.37ZM79.0674 102.108C78.2874 102.108 77.5374 102.006 76.8174 101.802C76.0974 101.586 75.5334 101.316 75.1254 100.992L75.8454 99.624C76.2654 99.924 76.7754 100.164 77.3754 100.344C77.9754 100.524 78.5814 100.614 79.1934 100.614C80.7054 100.614 81.4614 100.182 81.4614 99.318C81.4614 99.03 81.3594 98.802 81.1554 98.634C80.9514 98.466 80.6934 98.346 80.3814 98.274C80.0814 98.19 79.6494 98.1 79.0854 98.004C78.3174 97.884 77.6874 97.746 77.1954 97.59C76.7154 97.434 76.3014 97.17 75.9534 96.798C75.6054 96.426 75.4314 95.904 75.4314 95.232C75.4314 94.368 75.7914 93.678 76.5114 93.162C77.2314 92.634 78.1974 92.37 79.4094 92.37C80.0454 92.37 80.6814 92.448 81.3174 92.604C81.9534 92.76 82.4754 92.97 82.8834 93.234L82.1454 94.602C81.3654 94.098 80.4474 93.846 79.3914 93.846C78.6594 93.846 78.1014 93.966 77.7174 94.206C77.3334 94.446 77.1414 94.764 77.1414 95.16C77.1414 95.472 77.2494 95.718 77.4654 95.898C77.6814 96.078 77.9454 96.21 78.2574 96.294C78.5814 96.378 79.0314 96.474 79.6074 96.582C80.3754 96.714 80.9934 96.858 81.4614 97.014C81.9414 97.158 82.3494 97.41 82.6854 97.77C83.0214 98.13 83.1894 98.634 83.1894 99.282C83.1894 100.146 82.8174 100.836 82.0734 101.352C81.3414 101.856 80.3394 102.108 79.0674 102.108ZM94.2409 92.46V102H92.6029V100.56C92.2549 101.052 91.7929 101.436 91.2169 101.712C90.6529 101.976 90.0349 102.108 89.3629 102.108C88.0909 102.108 87.0889 101.76 86.3569 101.064C85.6249 100.356 85.2589 99.318 85.2589 97.95V92.46H86.9869V97.752C86.9869 98.676 87.2089 99.378 87.6529 99.858C88.0969 100.326 88.7329 100.56 89.5609 100.56C90.4729 100.56 91.1929 100.284 91.7209 99.732C92.2489 99.18 92.5129 98.4 92.5129 97.392V92.46H94.2409ZM97.5306 88.644H99.2586V102H97.5306V88.644ZM108.15 101.442C107.898 101.658 107.586 101.826 107.214 101.946C106.842 102.054 106.458 102.108 106.062 102.108C105.102 102.108 104.358 101.85 103.83 101.334C103.302 100.818 103.038 100.08 103.038 99.12V93.882H101.418V92.46H103.038V90.372H104.766V92.46H107.502V93.882H104.766V99.048C104.766 99.564 104.892 99.96 105.144 100.236C105.408 100.512 105.78 100.65 106.26 100.65C106.788 100.65 107.238 100.5 107.61 100.2L108.15 101.442ZM113.714 92.37C115.034 92.37 116.042 92.694 116.738 93.342C117.446 93.99 117.8 94.956 117.8 96.24V102H116.162V100.74C115.874 101.184 115.46 101.526 114.92 101.766C114.392 101.994 113.762 102.108 113.03 102.108C111.962 102.108 111.104 101.85 110.456 101.334C109.82 100.818 109.502 100.14 109.502 99.3C109.502 98.46 109.808 97.788 110.42 97.284C111.032 96.768 112.004 96.51 113.336 96.51H116.072V96.168C116.072 95.424 115.856 94.854 115.424 94.458C114.992 94.062 114.356 93.864 113.516 93.864C112.952 93.864 112.4 93.96 111.86 94.152C111.32 94.332 110.864 94.578 110.492 94.89L109.772 93.594C110.264 93.198 110.852 92.898 111.536 92.694C112.22 92.478 112.946 92.37 113.714 92.37ZM113.318 100.776C113.978 100.776 114.548 100.632 115.028 100.344C115.508 100.044 115.856 99.624 116.072 99.084V97.752H113.408C111.944 97.752 111.212 98.244 111.212 99.228C111.212 99.708 111.398 100.086 111.77 100.362C112.142 100.638 112.658 100.776 113.318 100.776ZM123.733 102.108C122.953 102.108 122.203 102.006 121.483 101.802C120.763 101.586 120.199 101.316 119.791 100.992L120.511 99.624C120.931 99.924 121.441 100.164 122.041 100.344C122.641 100.524 123.247 100.614 123.859 100.614C125.371 100.614 126.127 100.182 126.127 99.318C126.127 99.03 126.025 98.802 125.821 98.634C125.617 98.466 125.359 98.346 125.047 98.274C124.747 98.19 124.315 98.1 123.751 98.004C122.983 97.884 122.353 97.746 121.861 97.59C121.381 97.434 120.967 97.17 120.619 96.798C120.271 96.426 120.097 95.904 120.097 95.232C120.097 94.368 120.457 93.678 121.177 93.162C121.897 92.634 122.863 92.37 124.075 92.37C124.711 92.37 125.347 92.448 125.983 92.604C126.619 92.76 127.141 92.97 127.549 93.234L126.811 94.602C126.031 94.098 125.113 93.846 124.057 93.846C123.325 93.846 122.767 93.966 122.383 94.206C121.999 94.446 121.807 94.764 121.807 95.16C121.807 95.472 121.915 95.718 122.131 95.898C122.347 96.078 122.611 96.21 122.923 96.294C123.247 96.378 123.697 96.474 124.273 96.582C125.041 96.714 125.659 96.858 126.127 97.014C126.607 97.158 127.015 97.41 127.351 97.77C127.687 98.13 127.855 98.634 127.855 99.282C127.855 100.146 127.483 100.836 126.739 101.352C126.007 101.856 125.005 102.108 123.733 102.108ZM130.015 92.46H131.743V102H130.015V92.46ZM130.879 90.624C130.543 90.624 130.261 90.516 130.033 90.3C129.817 90.084 129.709 89.82 129.709 89.508C129.709 89.196 129.817 88.932 130.033 88.716C130.261 88.488 130.543 88.374 130.879 88.374C131.215 88.374 131.491 88.482 131.707 88.698C131.935 88.902 132.049 89.16 132.049 89.472C132.049 89.796 131.935 90.072 131.707 90.3C131.491 90.516 131.215 90.624 130.879 90.624Z" fill="#1C2D33"/>
<rect x="5" y="1" width="162" height="132" rx="3" stroke="#DADADA" stroke-width="2"/>
</g>
<defs>
<filter id="filter0_d" x="0" y="0" width="172" height="142" filterUnits="userSpaceOnUse" color-interpolation-filters="sRGB">
<feFlood flood-opacity="0" result="BackgroundImageFix"/>
<feColorMatrix in="SourceAlpha" type="matrix" values="0 0 0 0 0 0 0 0 0 0 0 0 0 0 0 0 0 0 127 0"/>
<feOffset dy="4"/>
<feGaussianBlur stdDeviation="2"/>
<feColorMatrix type="matrix" values="0 0 0 0 0 0 0 0 0 0 0 0 0 0 0 0 0 0 0.25 0"/>
<feBlend mode="normal" in2="BackgroundImageFix" result="effect1_dropShadow"/>
<feBlend mode="normal" in="SourceGraphic" in2="effect1_dropShadow" result="shape"/>
</filter>
</defs>
</svg>
