<svg width="34" height="34" viewBox="0 0 34 34" fill="none" xmlns="http://www.w3.org/2000/svg">
<path d="M22.6667 11.3333C24.9211 11.3333 27.0831 12.2288 28.6772 13.8228C30.2712 15.4169 31.1668 17.5789 31.1668 19.8333V29.7499H25.5001V19.8333C25.5001 19.0818 25.2016 18.3611 24.6702 17.8298C24.1389 17.2984 23.4182 16.9999 22.6667 16.9999C21.9153 16.9999 21.1946 17.2984 20.6633 17.8298C20.1319 18.3611 19.8334 19.0818 19.8334 19.8333V29.7499H14.1667V19.8333C14.1667 17.5789 15.0623 15.4169 16.6563 13.8228C18.2504 12.2288 20.4124 11.3333 22.6667 11.3333V11.3333Z" stroke="#2757CC" stroke-width="2" stroke-linecap="round" stroke-linejoin="round"/>
<path d="M8.49992 12.75H2.83325V29.75H8.49992V12.75Z" stroke="#2757CC" stroke-width="2" stroke-linecap="round" stroke-linejoin="round"/>
<path d="M5.66659 8.49992C7.23139 8.49992 8.49992 7.23139 8.49992 5.66659C8.49992 4.10178 7.23139 2.83325 5.66659 2.83325C4.10178 2.83325 2.83325 4.10178 2.83325 5.66659C2.83325 7.23139 4.10178 8.49992 5.66659 8.49992Z" stroke="#2757CC" stroke-width="2" stroke-linecap="round" stroke-linejoin="round"/>
</svg>
