<svg width="34" height="34" viewBox="0 0 34 34" fill="none" xmlns="http://www.w3.org/2000/svg">
<path d="M31.1665 23.9701V28.2201C31.1681 28.6146 31.0873 29.0051 30.9293 29.3666C30.7712 29.7281 30.5394 30.0526 30.2486 30.3194C29.9579 30.5861 29.6147 30.7892 29.2409 30.9156C28.8672 31.042 28.4711 31.0889 28.0782 31.0534C23.7189 30.5797 19.5314 29.0901 15.8524 26.7042C12.4295 24.5292 9.52742 21.6271 7.35237 18.2042C4.95817 14.5084 3.46821 10.3006 3.0032 5.92172C2.9678 5.52997 3.01435 5.13513 3.13991 4.76236C3.26546 4.38958 3.46726 4.04703 3.73245 3.75652C3.99764 3.46601 4.32042 3.23389 4.68024 3.07496C5.04005 2.91603 5.42901 2.83376 5.82237 2.83339H10.0724C10.7599 2.82662 11.4264 3.07008 11.9477 3.51839C12.469 3.9667 12.8095 4.58927 12.9057 5.27006C13.0851 6.63015 13.4178 7.96559 13.8974 9.25089C14.088 9.75795 14.1292 10.309 14.0162 10.8388C13.9032 11.3686 13.6408 11.8549 13.2599 12.2401L11.4607 14.0392C13.4774 17.5859 16.414 20.5225 19.9607 22.5392L21.7599 20.7401C22.145 20.3592 22.6313 20.0967 23.1611 19.9837C23.6909 19.8707 24.242 19.912 24.749 20.1026C26.0343 20.5822 27.3698 20.9148 28.7299 21.0942C29.418 21.1913 30.0465 21.5379 30.4958 22.0682C30.9451 22.5984 31.1838 23.2753 31.1665 23.9701Z" stroke="#2757CC" stroke-width="2" stroke-linecap="round" stroke-linejoin="round"/>
</svg>
