<svg width="147" height="143" viewBox="0 0 147 143" fill="none" xmlns="http://www.w3.org/2000/svg">
<g filter="url(#filter0_d)">
<rect x="20" y="13" width="107" height="103" rx="15" fill="#FCFCFC"/>
</g>
<g clip-path="url(#clip0)">
<path d="M47.254 102C47.6854 102 48.1157 101.975 48.5443 101.927C51.1844 101.626 53.63 100.392 55.4404 98.4461C55.6664 98.2053 55.893 97.9615 56.1001 97.6966C59.3359 93.5739 59.297 87.7633 56.0052 83.6847C52.7139 79.6066 47.0423 78.3415 42.3297 80.6343C37.6165 82.9271 35.1114 88.1701 36.2884 93.2769C37.4655 98.3838 42.0133 102.002 47.254 102ZM44.7541 88.2502C44.7541 86.8695 45.8733 85.7503 47.254 85.7503C48.6347 85.7503 49.7539 86.8695 49.7539 88.2502C49.7539 89.6309 48.6347 90.7501 47.254 90.7501C45.8733 90.7501 44.7541 89.6309 44.7541 88.2502ZM47.254 93.25C49.8352 93.238 52.2378 94.5672 53.5991 96.7599C53.5739 96.7862 53.5516 96.8165 53.5253 96.844C53.444 96.9275 53.3565 97.0054 53.2752 97.0849C53.1316 97.2228 52.9851 97.359 52.834 97.4854C52.7368 97.5667 52.6355 97.6416 52.5354 97.7177C52.3854 97.8316 52.2338 97.9426 52.0793 98.045C51.9706 98.1177 51.8602 98.1852 51.7503 98.2516C51.593 98.3466 51.4327 98.4353 51.2702 98.52C51.1541 98.58 51.0379 98.6378 50.9206 98.6928C50.753 98.77 50.583 98.8387 50.4102 98.9051C50.2855 98.9514 50.1716 98.9989 50.0492 99.0401C49.8689 99.1002 49.6853 99.15 49.5016 99.1992C49.3831 99.2301 49.2653 99.265 49.1451 99.2913C48.9403 99.3365 48.7303 99.3691 48.5203 99.3989H48.5054V97.0002C48.5054 96.3096 47.9458 95.75 47.2551 95.75C46.5651 95.75 46.0055 96.3096 46.0055 97.0002V99.4011H45.9917C45.7817 99.3714 45.5717 99.3388 45.3669 99.2941C45.2416 99.2678 45.1306 99.2341 45.0127 99.2026C44.8279 99.154 44.6379 99.1025 44.4617 99.0424C44.3369 99.0012 44.2219 98.9537 44.1029 98.9091C43.9307 98.8415 43.759 98.7729 43.5919 98.6951C43.4741 98.6401 43.3579 98.5829 43.2429 98.5228C43.0793 98.4387 42.919 98.3489 42.7617 98.2539C42.6507 98.1875 42.542 98.12 42.4344 98.049C42.2782 97.9449 42.1254 97.8339 41.9755 97.7189C41.8754 97.6439 41.7752 97.569 41.6791 97.4889C41.5269 97.3641 41.3804 97.2239 41.2356 97.0866C41.1515 97.0065 41.0657 96.9304 40.9856 96.8463C40.9593 96.8188 40.937 96.7891 40.9118 96.7628C42.2719 94.5695 44.6734 93.2392 47.254 93.25ZM47.254 82.0007C50.2775 81.9835 53.0927 83.5376 54.6902 86.1039C56.2878 88.6708 56.4389 91.8825 55.0891 94.5878C54.0173 93.2294 52.6132 92.1697 51.0127 91.5117C52.778 89.4993 52.6452 86.4541 50.7118 84.6025C48.7783 82.7514 45.7302 82.7514 43.7962 84.6025C41.8628 86.4541 41.73 89.4993 43.4952 91.5117C41.8948 92.1697 40.4912 93.2294 39.4195 94.5878C38.0697 91.8825 38.2207 88.6708 39.8183 86.1039C41.4159 83.5376 44.2311 81.9835 47.254 82.0007Z" fill="#1C2D33"/>
<path d="M73.5035 79.5001C67.2906 79.5001 62.2541 84.5372 62.2541 90.75C62.2541 96.9635 67.2906 102 73.5035 102C73.9349 102 74.3652 101.975 74.7938 101.927C77.4339 101.626 79.8794 100.392 81.6899 98.4461C81.9159 98.2052 82.1425 97.9614 82.3496 97.6965C85.008 94.3097 85.5007 89.7035 83.6182 85.8315C81.7356 81.9594 77.8087 79.5018 73.5035 79.5001ZM73.5035 82.0006C76.5269 81.9834 79.3421 83.5375 80.9397 86.1038C82.5373 88.6707 82.6883 91.8824 81.3385 94.5878C80.2668 93.2294 78.8626 92.1697 77.2622 91.5116C79.0274 89.4992 78.8947 86.454 76.9612 84.6024C75.0278 82.7513 71.9797 82.7513 70.0462 84.6024C68.1128 86.454 67.98 89.4992 69.7453 91.5116C68.1448 92.1697 66.7407 93.2294 65.669 94.5878C64.3191 91.8824 64.4702 88.6707 66.0678 86.1038C67.6653 83.5375 70.4805 81.9834 73.5035 82.0006ZM79.7747 96.8439C79.6935 96.9275 79.6059 97.0053 79.5247 97.0848C79.381 97.2227 79.2351 97.3589 79.0835 97.4854C78.9862 97.5666 78.885 97.6416 78.7848 97.7177C78.6349 97.8315 78.4838 97.9425 78.3288 98.045C78.2201 98.1176 78.1096 98.1852 77.9998 98.2515C77.8424 98.3465 77.6822 98.4352 77.5197 98.5199C77.4035 98.58 77.2874 98.6378 77.1701 98.6927C77.0024 98.7699 76.8325 98.8386 76.6597 98.905C76.5349 98.9513 76.4211 98.9988 76.2986 99.04C76.119 99.1001 75.9347 99.1499 75.751 99.1991C75.6326 99.23 75.5147 99.2649 75.3951 99.2912C75.1897 99.3364 74.9797 99.369 74.7697 99.3988H74.7548V97.0001C74.7548 96.3095 74.1952 95.7499 73.5052 95.7499C72.8145 95.7499 72.2549 96.3095 72.2549 97.0001V99.4011H72.2412C72.0312 99.3713 71.8212 99.3387 71.6164 99.2941C71.491 99.2677 71.38 99.234 71.2627 99.2025C71.0773 99.1539 70.8874 99.1024 70.7111 99.0423C70.5864 99.0011 70.4714 98.9536 70.3524 98.909C70.1801 98.8415 70.0091 98.7728 69.8414 98.695C69.7235 98.64 69.6074 98.5828 69.4924 98.5227C69.3287 98.4386 69.1691 98.3488 69.0111 98.2538C68.9001 98.1874 68.7914 98.1199 68.6838 98.049C68.5276 97.9448 68.3749 97.8338 68.2249 97.7188C68.1248 97.6439 68.0253 97.5689 67.9286 97.4888C67.7763 97.3641 67.6299 97.2239 67.4851 97.0865C67.4016 97.0064 67.3152 96.9303 67.2351 96.8462C67.2087 96.8188 67.1864 96.789 67.1612 96.7627C68.5311 94.5786 70.928 93.2528 73.5063 93.2528C76.0841 93.2528 78.481 94.5786 79.8514 96.7627C79.8234 96.7861 79.801 96.8165 79.7747 96.8439ZM71.0035 88.2501C71.0035 86.8694 72.1227 85.7502 73.5035 85.7502C74.8842 85.7502 76.0039 86.8694 76.0039 88.2501C76.0039 89.6308 74.8842 90.75 73.5035 90.75C72.1227 90.75 71.0035 89.6308 71.0035 88.2501Z" fill="#1C2D33"/>
<path d="M99.7535 79.5001C93.54 79.5001 88.5035 84.5372 88.5035 90.75C88.5035 96.9635 93.54 102 99.7535 102C100.184 102 100.615 101.975 101.043 101.927C103.683 101.626 106.129 100.392 107.939 98.4461C108.166 98.2052 108.392 97.9614 108.6 97.6965C111.257 94.3097 111.75 89.7035 109.868 85.8315C107.985 81.9594 104.059 79.5018 99.7535 79.5001ZM97.2535 88.2501C97.2535 86.8694 98.3728 85.7502 99.7535 85.7502C101.134 85.7502 102.253 86.8694 102.253 88.2501C102.253 89.6308 101.134 90.75 99.7535 90.75C98.3728 90.75 97.2535 89.6308 97.2535 88.2501ZM99.7535 93.25C102.335 93.238 104.737 94.5672 106.098 96.7598C106.073 96.7861 106.05 96.8165 106.024 96.8439C105.943 96.9275 105.856 97.0053 105.775 97.0848C105.63 97.2227 105.485 97.3589 105.333 97.4854C105.236 97.5666 105.134 97.6416 105.034 97.7177C104.884 97.8315 104.733 97.9425 104.578 98.045C104.469 98.1176 104.36 98.1852 104.249 98.2515C104.092 98.3465 103.932 98.4352 103.77 98.5199C103.653 98.58 103.537 98.6378 103.42 98.6927C103.252 98.7699 103.082 98.8386 102.91 98.905C102.784 98.9513 102.671 98.9988 102.548 99.04C102.368 99.1001 102.185 99.1499 102 99.1991C101.882 99.23 101.765 99.2649 101.645 99.2912C101.44 99.3364 101.23 99.369 101.02 99.3988H101.004V97.0001C101.004 96.3095 100.445 95.7499 99.7546 95.7499C99.064 95.7499 98.5044 96.3095 98.5044 97.0001V99.4011H98.4906C98.2806 99.3713 98.0706 99.3387 97.8658 99.2941C97.7411 99.2677 97.6295 99.234 97.5122 99.2025C97.3268 99.1539 97.1368 99.1024 96.9606 99.0423C96.8358 99.0011 96.7208 98.9536 96.6018 98.909C96.4296 98.8415 96.2585 98.7728 96.0908 98.695C95.9735 98.64 95.8568 98.5828 95.7418 98.5227C95.5782 98.4386 95.4185 98.3488 95.2606 98.2538C95.1496 98.1874 95.0409 98.1199 94.9333 98.049C94.7771 97.9448 94.6249 97.8338 94.4744 97.7188C94.3748 97.6439 94.2747 97.5689 94.1786 97.4888C94.0258 97.3641 93.8799 97.2239 93.7345 97.0865C93.651 97.0064 93.5646 96.9303 93.4845 96.8462C93.4582 96.8188 93.4359 96.789 93.4107 96.7627C94.7708 94.5695 97.1723 93.2391 99.7535 93.25ZM107.588 94.5878C106.516 93.2294 105.112 92.1697 103.512 91.5116C105.277 89.4992 105.145 86.454 103.211 84.6024C101.277 82.7513 98.2291 82.7513 96.2957 84.6024C94.3622 86.454 94.2295 89.4992 95.9947 91.5116C94.3943 92.1697 92.9901 93.2294 91.9184 94.5878C90.0885 90.9074 91.067 86.45 94.269 83.874C97.4715 81.2985 102.035 81.2985 105.237 83.874C108.44 86.45 109.418 90.9074 107.588 94.5878Z" fill="#1C2D33"/>
<path d="M99.7534 77.0001C100.444 77.0001 101.003 76.4405 101.003 75.7504V73.2505C101.003 71.8698 99.8839 70.7506 98.5032 70.7506H74.7537V64.4742C78.7224 64.3254 89.7532 63.3407 89.7532 57.0007C89.9111 54.5311 89.1083 52.0964 87.5136 50.2048C85.4549 48.2965 82.793 47.1693 79.9898 47.0182C79.5052 46.0935 79.0875 45.1345 78.7396 44.1498C78.8586 44.0445 78.9896 43.9398 79.1235 43.8345C80.4687 42.9768 81.2406 41.4542 81.1371 39.8623C82.2242 39.3479 83.0425 38.3969 83.3875 37.2445C83.7509 35.33 83.2834 33.987 82.1436 33.6586C81.973 33.6105 81.7968 33.5819 81.62 33.5733C81.6108 33.2575 81.5971 32.9187 81.5759 32.5537C81.3333 28.3664 76.7209 27.0938 73.9926 27.0011H72.9747C70.2888 27.0938 65.6763 28.3664 65.4314 32.5537C65.4103 32.917 65.3965 33.2558 65.3874 33.571C65.2152 33.5796 65.0446 33.6082 64.8787 33.6563C63.7286 33.9847 63.2537 35.326 63.629 37.3109C63.9878 38.4359 64.7992 39.3605 65.8675 39.8635C65.7645 41.4548 66.5352 42.9768 67.8799 43.8345C68.0201 43.9398 68.1437 44.0434 68.2627 44.1481C67.9165 45.1357 67.4988 46.097 67.0124 47.0234C64.2092 47.1744 61.548 48.3016 59.4886 50.2093C57.8968 52.101 57.0963 54.5334 57.2542 57.0007C57.2542 63.3407 68.285 64.3254 72.2537 64.4742V70.7506H48.5042C47.1235 70.7506 46.0043 71.8698 46.0043 73.2505V75.7504C46.0043 76.4405 46.5639 77.0001 47.2539 77.0001C47.9446 77.0001 48.5042 76.4405 48.5042 75.7504V73.2505H72.2537V75.7504C72.2537 76.4405 72.8133 77.0001 73.5034 77.0001C74.194 77.0001 74.7537 76.4405 74.7537 75.7504V73.2505H98.5032V75.7504C98.5032 76.4405 99.0628 77.0001 99.7534 77.0001ZM73.5034 55.3757C72.1244 54.2307 70.9074 52.9038 69.886 51.431C71.0641 51.7686 72.2789 51.9603 73.5034 52.0009C74.7279 51.9585 75.9427 51.7657 77.1197 51.427C76.1 52.9021 74.8835 54.2302 73.5034 55.3757ZM70.1664 46.1834C70.8238 46.7424 71.6672 47.0342 72.5301 47.001H74.4801C75.3419 47.0319 76.1847 46.7401 76.8422 46.1822C77.1174 46.842 77.4813 47.6259 77.9671 48.566C76.5309 49.0861 75.0283 49.4008 73.5034 49.501C71.9785 49.4008 70.4748 49.0861 69.0374 48.566C69.5261 47.6259 69.89 46.8408 70.1664 46.1794V46.1834ZM67.9274 32.6984C68.1013 29.7247 73.0125 29.501 73.0176 29.501H73.9497C73.9989 29.501 78.9072 29.7047 79.0823 32.6984C79.2345 34.1541 79.1447 35.6247 78.8162 37.0511C78.6761 37.5787 78.6011 38.1211 78.5925 38.667C78.5925 38.7694 78.6011 38.8661 78.6034 38.9657V39.0046C78.6034 39.1585 78.6125 39.3147 78.6211 39.4658C78.8632 40.3882 78.4569 41.3586 77.6301 41.8335C76.9515 42.3514 76.3426 42.9545 75.8174 43.6274C75.2097 44.3621 75.0764 44.5023 74.4784 44.5023H72.529C71.931 44.5023 71.7977 44.3632 71.19 43.6274C70.6653 42.9545 70.0565 42.3514 69.379 41.8335C68.5516 41.3586 68.1459 40.3882 68.3886 39.4658C68.3977 39.3147 68.4 39.1585 68.4063 39.0046C68.4063 38.992 68.4063 38.9794 68.4063 38.9657C68.4063 38.8661 68.4177 38.7694 68.4177 38.667C68.4092 38.1211 68.3336 37.5787 68.194 37.0511C67.8656 35.6247 67.7752 34.1541 67.9274 32.6984ZM59.7541 57.0007C59.6099 55.1686 60.1684 53.3507 61.3162 51.9156C62.6895 50.6751 64.4044 49.8769 66.2377 49.6257C66.7223 51.3131 68.2049 54.3681 72.7224 57.9832C72.7544 58.0015 72.7876 58.0181 72.8214 58.033C73.0222 58.1703 73.2602 58.2424 73.5034 58.2384C73.5829 58.2395 73.6619 58.2327 73.7397 58.2184C73.8158 58.2029 73.8902 58.18 73.9612 58.1491C74.0401 58.1188 74.1157 58.0799 74.186 58.033C74.2175 58.0129 74.2536 58.0067 74.285 57.9832C78.8025 54.3681 80.2851 51.3131 80.7697 49.6257C82.6036 49.8792 84.319 50.6791 85.6912 51.9219C86.8373 53.3553 87.3957 55.1709 87.2533 57.0007C87.2533 61.0753 77.071 62.0006 73.5034 62.0006C69.9363 62.0006 59.7541 61.0816 59.7541 57.0007Z" fill="#1C2D33"/>
</g>
<defs>
<filter id="filter0_d" x="0" y="0" width="147" height="143" filterUnits="userSpaceOnUse" color-interpolation-filters="sRGB">
<feFlood flood-opacity="0" result="BackgroundImageFix"/>
<feColorMatrix in="SourceAlpha" type="matrix" values="0 0 0 0 0 0 0 0 0 0 0 0 0 0 0 0 0 0 127 0"/>
<feOffset dy="7"/>
<feGaussianBlur stdDeviation="10"/>
<feColorMatrix type="matrix" values="0 0 0 0 0.152941 0 0 0 0 0.341176 0 0 0 0 0.8 0 0 0 0.05 0"/>
<feBlend mode="normal" in2="BackgroundImageFix" result="effect1_dropShadow"/>
<feBlend mode="normal" in="SourceGraphic" in2="effect1_dropShadow" result="shape"/>
</filter>
<clipPath id="clip0">
<rect width="75" height="75" fill="white" transform="translate(36 27)"/>
</clipPath>
</defs>
</svg>
