<svg width="147" height="143" viewBox="0 0 147 143" fill="none" xmlns="http://www.w3.org/2000/svg">
<g filter="url(#filter0_d)">
<rect x="20" y="13" width="107" height="103" rx="15" fill="#FCFCFC"/>
</g>
<path d="M64.5851 44.0965C64.7577 44.2646 64.8365 44.5071 64.7958 44.7447L63.817 50.4511C63.4015 52.6392 65.8449 54.7162 68.0677 53.5393L73.1923 50.845C73.4057 50.733 73.6604 50.7327 73.8739 50.845L78.9986 53.5393C80.9578 54.6562 83.6851 52.8423 83.2493 50.4511L82.2705 44.7447C82.2298 44.5071 82.3084 44.2648 82.4811 44.0965L86.6271 40.055C87.4314 39.2709 87.7154 38.1202 87.3684 37.0519C87.0213 35.9836 86.1151 35.2195 85.0034 35.0581L79.2736 34.2255C79.0352 34.1909 78.8291 34.0411 78.7223 33.825L76.1602 28.633C75.663 27.6258 74.6564 27 73.5331 27C72.4099 27 71.4033 27.6258 70.9061 28.633L68.3438 33.8249C68.237 34.0412 68.0309 34.1909 67.7923 34.2255L62.0625 35.0581C59.8015 35.3111 58.6902 38.3771 60.439 40.0551L64.5851 44.0965ZM61.7874 37.731C61.8298 37.6008 61.972 37.2916 62.3786 37.2325L68.1081 36.3999C69.0624 36.2615 69.8871 35.6625 70.3141 34.7975L72.8764 29.6057C73.0582 29.2371 73.3962 29.1974 73.5331 29.1974C73.6701 29.1974 74.008 29.2371 74.1898 29.6057L76.7523 34.7977C77.1793 35.6625 78.0038 36.2615 78.958 36.3999L84.6876 37.2325C85.0943 37.2916 85.2366 37.6009 85.2788 37.731C85.321 37.8611 85.3878 38.1949 85.0935 38.4816L80.9476 42.5229C80.2571 43.196 79.942 44.1655 80.105 45.116L81.0838 50.8225C81.1532 51.2275 80.9032 51.4584 80.7925 51.5388C80.6817 51.6192 80.3851 51.7856 80.0212 51.5944L74.8965 48.9001C74.0429 48.4515 73.0237 48.4515 72.1699 48.9001L67.0452 51.5944C66.6815 51.786 66.3847 51.6192 66.274 51.5388C66.1632 51.4584 65.9132 51.2275 65.9826 50.8225L66.9614 45.116C67.1244 44.1655 66.8094 43.196 66.1188 42.5229L61.9729 38.4817C61.6786 38.1949 61.7452 37.8612 61.7874 37.731Z" fill="#1C2D33"/>
<path d="M86.1407 47.3614C85.8555 48.2389 86.0889 49.1843 86.7497 49.8285L89.7113 52.7153C89.7607 52.7635 89.7832 52.8327 89.7716 52.9007L89.0725 56.9772C88.7093 58.7762 90.7625 60.4463 92.5644 59.514L96.2251 57.5894C96.2862 57.5573 96.3592 57.5573 96.4201 57.5894L100.081 59.514C101.534 60.4102 103.982 58.9932 103.573 56.9772L102.874 52.9007C102.862 52.8327 102.885 52.7633 102.934 52.7154L105.896 49.8284C107.231 48.6181 106.567 45.9943 104.562 45.7236L100.469 45.1288C100.401 45.119 100.342 45.0761 100.311 45.0143L98.4809 41.3056C97.695 39.6471 95.1675 39.4778 94.1647 41.3055L92.3344 45.0141C92.3039 45.0761 92.2449 45.119 92.1768 45.1288L88.0837 45.7236C87.1702 45.8563 86.4258 46.4838 86.1407 47.3614ZM88.2305 48.0404C88.2571 47.9582 88.314 47.9103 88.3994 47.8978L92.4924 47.3031C93.2763 47.1891 93.9536 46.697 94.3044 45.9867L96.1349 42.2778C96.1731 42.2005 96.2363 42.1611 96.3226 42.1611C96.4088 42.1611 96.472 42.2003 96.5102 42.2777V42.2778L98.3408 45.9868C98.6915 46.6971 99.3688 47.1891 100.153 47.3031L104.246 47.8978C104.331 47.9103 104.388 47.9582 104.415 48.0404C104.441 48.1225 104.424 48.1948 104.362 48.255L101.4 51.1422C100.833 51.6952 100.574 52.4914 100.708 53.2721L101.407 57.3487C101.422 57.4337 101.394 57.5027 101.324 57.5532C101.254 57.604 101.18 57.6093 101.103 57.569L97.4423 55.6444C96.7412 55.2758 95.9041 55.2758 95.2027 55.6444L91.5418 57.569C91.4653 57.609 91.3912 57.6039 91.3213 57.5532C91.2514 57.5025 91.2234 57.4337 91.2381 57.3486L91.9373 53.2721C92.0711 52.4913 91.8123 51.695 91.2451 51.1419L88.2835 48.2551C88.2215 48.1946 88.2037 48.1224 88.2305 48.0404Z" fill="#1C2D33"/>
<path d="M43.9857 52.7154C44.0351 52.7636 44.0577 52.8328 44.0461 52.9008L43.3469 56.9773C43.0424 58.7479 44.9271 60.4821 46.8388 59.5141L50.4996 57.5895C50.5607 57.5574 50.6337 57.5574 50.6946 57.5895L54.3555 59.5141C55.9192 60.4102 58.2095 58.9682 57.8474 56.9773L57.1483 52.9007C57.1365 52.8328 57.1591 52.7636 57.2085 52.7155L60.1699 49.8284C61.5054 48.6182 60.8414 45.9944 58.836 45.7237L54.7433 45.1289C54.675 45.1191 54.616 45.0762 54.5855 45.0144L52.755 41.3055C51.9993 39.6359 49.3204 39.4951 48.4389 41.3055L46.6084 45.0142C46.5779 45.0762 46.5189 45.1191 46.4508 45.1289L42.3577 45.7237C40.5346 45.9343 39.5805 48.403 41.024 49.8286L43.9857 52.7154ZM42.5048 48.0405C42.5315 47.9583 42.5883 47.9104 42.6737 47.8979L46.7668 47.3032C47.5506 47.1892 48.2279 46.697 48.5788 45.9867L50.4092 42.2778C50.4475 42.2004 50.5106 42.1612 50.5969 42.1612C50.6832 42.1612 50.7464 42.2004 50.7845 42.2779L52.615 45.9869C52.9657 46.6972 53.643 47.1892 54.427 47.3032L58.5199 47.8979C58.6053 47.9104 58.6623 47.9583 58.689 48.0405C58.7156 48.1226 58.6979 48.1949 58.6361 48.2551L55.6742 51.1421C55.1068 51.6951 54.8482 52.4915 54.9822 53.2721L55.6814 57.3487C55.696 57.4338 55.6679 57.5028 55.5982 57.5533C55.5284 57.6041 55.4542 57.6094 55.3777 57.5691L51.7168 55.6445C51.0155 55.2759 50.1784 55.2759 49.477 55.6445L45.8161 57.5691C45.7398 57.6094 45.6655 57.604 45.5958 57.5533C45.526 57.5026 45.4979 57.4338 45.5126 57.3487L46.2117 53.2723C46.3458 52.4915 46.0869 51.6951 45.5196 51.142L42.558 48.2552C42.496 48.1947 42.4781 48.1225 42.5048 48.0405Z" fill="#1C2D33"/>
<path d="M106.06 91.5676L100.527 89.2877V87.1472C102.379 85.3193 103.932 82.2021 104.201 79.6242C106.078 74.7973 104.046 70.7221 101.965 68.8251C102.549 65.5453 99.7913 62.2376 96.4002 62.3032C93.029 62.3123 90.2902 65.3527 90.8321 68.8065C89.5995 69.8785 88.5928 71.5134 88.0802 73.3091C87.424 75.6084 87.6279 77.9647 88.6474 79.971C89.0296 82.4886 90.4433 85.2875 92.276 87.1425V89.2878L87.8978 91.0919C87.3876 90.4603 86.7391 89.9362 85.982 89.5781C85.4335 89.3189 84.7786 89.5531 84.5192 90.1015C84.2598 90.6501 84.4941 91.3051 85.0426 91.5645C86.1898 92.1071 86.9312 93.278 86.9312 94.5478V99.8028H74.6306V94.2668C75.7672 94.2276 76.6795 93.2909 76.6795 92.1451V89.1734C77.0069 88.978 77.316 88.7502 77.6042 88.4949L80.3548 89.6284C80.7567 89.7815 81.4562 89.7095 81.7891 89.0312C82.0204 88.4701 81.753 87.828 81.1919 87.5968L78.4445 86.4646V82.2989C81.0197 80.1674 82.5471 76.7045 83.0237 72.9781C84.3082 70.8152 86.427 65.1381 82.6998 61.3642C81.1634 59.8087 78.9881 59.505 77.2166 59.8715C75.788 56.7407 71.0773 56.3647 67.0931 58.6944C66.571 59.0035 66.3985 59.6775 66.7077 60.1995C67.0168 60.7214 67.6909 60.8942 68.2128 60.5849C71.3625 58.8614 74.6672 58.8946 75.3254 61.135L73.9175 64.8919C73.14 65.7554 72.1577 66.4223 71.0611 66.8213C68.3419 67.811 66.5042 69.3902 65.4208 70.5756C64.8734 68.7781 64.5822 66.0879 65.4041 63.8509C65.6133 63.2813 65.3214 62.6501 64.7517 62.4407C64.1825 62.2317 63.551 62.5236 63.3416 63.093C62.0661 66.565 62.8982 70.9036 64.0424 72.9867C64.5468 76.6978 65.9028 79.9827 68.6221 82.3007V86.4648L61.3415 89.4646C60.4601 89.8278 59.7132 90.4002 59.1446 91.1092L54.7245 89.2878V86.8931C56.8051 84.6213 58.5178 80.4481 58.4646 77.6487C58.4646 72.5448 55.5238 69.4976 50.5979 69.4976C48.6471 69.4976 46.9981 69.9741 45.6973 70.9137C45.2054 71.2691 45.0947 71.9558 45.45 72.4477C45.8054 72.9396 46.4921 73.0503 46.9839 72.6949C47.9025 72.0314 49.1184 71.6949 50.5979 71.6949C55.2837 71.6949 56.2673 74.9326 56.2673 77.6487C56.4349 80.4504 53.4368 86.7507 50.5979 87.0322C47.2594 86.4054 44.3694 79.7192 45.0062 76.4029C45.085 75.8013 44.6612 75.2496 44.0596 75.1708C43.4581 75.0936 42.9065 75.5158 42.8275 76.1174C42.3164 79.5939 43.8879 83.8925 46.4734 86.8943V89.2875L40.9404 91.5674C39.1487 92.3055 37.9909 94.0348 37.9909 95.9726V99.4348C37.9909 100.849 39.1415 102 40.5558 102H106.445C107.859 102 109.009 100.849 109.009 99.4348V95.9726C109.009 94.0349 107.852 92.3057 106.06 91.5676ZM81.1364 62.9082C83.3766 65.1763 82.5951 68.6369 81.7099 70.7071C80.9083 69.8987 79.7108 68.8179 78.2425 67.8781C77.2477 67.2412 76.4661 66.3757 76.0499 65.4626L77.3041 62.1158C78.3613 61.8117 80.0406 61.7987 81.1364 62.9082ZM66.2633 73.0209C66.7708 72.2906 68.5182 70.0849 71.8122 68.886C72.8167 68.5204 73.7491 67.9836 74.5676 67.3071C75.1777 68.2364 76.0275 69.0689 77.0578 69.7285C78.8644 70.885 80.2367 72.3151 80.8093 72.957C80.204 77.2965 77.7003 81.871 73.5318 81.871C69.3862 81.871 66.8833 77.336 66.2633 73.0209ZM73.5318 84.0683C74.4805 84.0683 75.3891 83.8998 76.2471 83.5737V86.7615C74.8859 88.1243 72.3244 88.2155 70.8192 86.7624V83.5748C71.6765 83.9003 72.5842 84.0683 73.5318 84.0683ZM57.9381 99.8028H55.7432L57.938 96.6823V99.8028H57.9381ZM46.4732 97.43L43.3289 92.9599L46.4732 91.6644V97.43ZM48.6705 93.592C49.74 94.042 51.2305 94.1193 52.5271 93.5918V99.8028H48.6705V93.592ZM54.7244 91.6642L57.8699 92.9603L54.7244 97.4323V91.6642ZM52.5271 88.7016V91.042C51.5685 91.9314 49.8034 92.0463 48.6705 91.0412C48.6705 90.4817 48.6705 89.3007 48.6705 88.7023C49.828 89.3045 51.1218 89.4617 52.5271 88.7016ZM40.188 99.4349V95.9728C40.188 95.1199 40.6043 94.3426 41.2827 93.8696L45.4559 99.8028H40.5557C40.353 99.8028 40.188 99.6378 40.188 99.4349ZM60.1354 94.5476C60.1354 93.2052 60.9374 92.0073 62.1784 91.4961L69.462 88.4949C70.8024 89.6225 72.5322 90.2633 74.4821 89.9662V92.072C73.3455 92.1113 72.4332 93.0479 72.4332 94.1939V99.8028H60.1354V94.5476ZM96.4002 64.5003C98.1411 64.5003 99.5829 65.8005 99.8082 67.4805C97.6941 66.6167 95.1561 66.6258 92.9888 67.5085C93.2016 65.815 94.6497 64.5003 96.4002 64.5003ZM92.6277 70.1862C93.6431 69.4743 95.062 69.0356 96.5102 69.0356C97.7851 69.0356 99.0829 69.3755 100.149 70.1682C101.242 70.9814 103.6 73.8681 102.444 77.9681C101.487 77.2677 100.168 75.4452 99.3097 73.7732C99.1427 73.4471 98.8241 73.2262 98.4604 73.1833C98.0968 73.1404 97.7353 73.282 97.497 73.5599C96.4017 74.8389 93.149 78.0044 90.375 78.4748C89.0595 75.2187 90.7051 71.5343 92.6277 70.1862ZM91.0118 80.5858C93.8751 79.9748 96.6538 77.5614 98.1145 76.1074C98.8347 77.4024 100.729 79.7442 101.887 80.1699C101.139 83.7532 98.2889 87.0322 96.4001 87.0322C94.6282 87.0322 91.8935 83.9826 91.0118 80.5858ZM96.4002 89.2295C97.0262 89.2295 97.6776 89.0666 98.3296 88.7574C98.3297 88.7496 98.3294 89.9448 98.3297 90.0384C98.3699 91.7378 97.6465 93.6432 96.4039 94.9521C95.2467 93.7525 94.4495 91.8577 94.4725 90.087C94.4734 90.0296 94.4726 88.9488 94.4728 88.7608C95.1038 89.0602 95.7519 89.2295 96.4002 89.2295ZM92.3965 91.6144C92.6706 93.2822 93.4026 94.851 94.5261 96.1414L95.3028 97.0335V99.8028H89.1283V94.5476C89.1283 94.0339 89.0542 93.5301 88.9163 93.0485L92.3965 91.6144ZM106.812 99.4349C106.812 99.6378 106.647 99.8028 106.444 99.8028H97.4999V97.0339L98.2505 96.1795C99.3923 94.8794 100.133 93.2986 100.408 91.6153L105.223 93.5993C106.188 93.997 106.812 94.9286 106.812 95.9729V99.4349H106.812Z" fill="#1C2D33"/>
<path d="M78.8649 95.392C78.2582 95.392 77.7663 95.8837 77.7663 96.4906C77.7663 97.0975 78.2582 97.5892 78.8649 97.5892H83.0147C83.6214 97.5892 84.1133 97.0975 84.1133 96.4906C84.1133 95.8837 83.6214 95.392 83.0147 95.392H78.8649Z" fill="#1C2D33"/>
<defs>
<filter id="filter0_d" x="0" y="0" width="147" height="143" filterUnits="userSpaceOnUse" color-interpolation-filters="sRGB">
<feFlood flood-opacity="0" result="BackgroundImageFix"/>
<feColorMatrix in="SourceAlpha" type="matrix" values="0 0 0 0 0 0 0 0 0 0 0 0 0 0 0 0 0 0 127 0"/>
<feOffset dy="7"/>
<feGaussianBlur stdDeviation="10"/>
<feColorMatrix type="matrix" values="0 0 0 0 0.152941 0 0 0 0 0.341176 0 0 0 0 0.8 0 0 0 0.05 0"/>
<feBlend mode="normal" in2="BackgroundImageFix" result="effect1_dropShadow"/>
<feBlend mode="normal" in="SourceGraphic" in2="effect1_dropShadow" result="shape"/>
</filter>
</defs>
</svg>
