<svg width="147" height="143" viewBox="0 0 147 143" fill="none" xmlns="http://www.w3.org/2000/svg">
<g filter="url(#filter0_d)">
<rect x="20" y="13" width="107" height="103" rx="15" fill="#FCFCFC"/>
</g>
<g clip-path="url(#clip0)">
<path d="M97.1814 56.9762H69.2423C70.5342 55.4911 71.3192 53.5539 71.3192 51.4356C71.3192 46.7741 67.5269 42.9817 62.8653 42.9817C58.2037 42.9817 54.4114 46.7741 54.4114 51.4356C54.4114 53.5539 55.1964 55.4911 56.4882 56.9762H49.8188C45.7886 56.9762 42.5098 60.255 42.5098 64.2852V72.9098C42.5098 73.7171 43.1642 74.3716 43.9716 74.3716C44.7789 74.3716 45.4334 73.7171 45.4334 72.9098V64.2852C45.4334 61.8671 47.4007 59.8998 49.8188 59.8998H90.7495C93.1676 59.8998 95.1349 61.8671 95.1349 64.2852V72.179H79.9321C75.9019 72.179 72.623 75.4578 72.623 79.488C72.623 83.5182 75.9019 86.7971 79.9321 86.7971H95.1349V94.6909C95.1349 97.109 93.1676 99.0763 90.7495 99.0763H49.8188C47.4007 99.0763 45.4334 97.109 45.4334 94.6909V86.0548C45.4334 85.2474 44.7789 84.593 43.9716 84.593C43.1642 84.593 42.5098 85.2474 42.5098 86.0548V94.6909C42.5098 98.7211 45.7886 102 49.8188 102H97.1814C101.212 102 104.49 98.7211 104.49 94.6909V64.2852C104.49 60.255 101.212 56.9762 97.1814 56.9762ZM62.8653 45.9055C65.9148 45.9055 68.3956 48.3863 68.3956 51.4358C68.3956 54.4853 65.9148 56.9661 62.8653 56.9661C59.816 56.9661 57.335 54.4853 57.335 51.4358C57.335 48.3863 59.8158 45.9055 62.8653 45.9055ZM96.5927 59.8998H97.1814C99.5995 59.8998 101.567 61.8671 101.567 64.2852V72.179H98.0585V64.2852C98.0585 62.6411 97.5125 61.1223 96.5927 59.8998ZM75.5466 79.488C75.5466 77.0699 77.5139 75.1026 79.9321 75.1026H101.567V83.8735H79.9321C77.5139 83.8735 75.5466 81.9062 75.5466 79.488ZM97.1814 99.0763H96.5927C97.5125 97.8538 98.0585 96.3351 98.0585 94.6909V86.7971H101.567V94.6909C101.567 97.109 99.5995 99.0763 97.1814 99.0763Z" fill="#1C2D33"/>
<path d="M79.5579 78.0261C79.172 78.0261 78.7948 78.1825 78.5229 78.4544C78.251 78.7263 78.0961 79.1035 78.0961 79.4879C78.0961 79.8724 78.251 80.2495 78.5229 80.5214C78.7963 80.7933 79.172 80.9497 79.5579 80.9497C79.9423 80.9497 80.318 80.7933 80.5914 80.5214C80.8633 80.2495 81.0197 79.8724 81.0197 79.4879C81.0197 79.1035 80.8633 78.7263 80.5914 78.4544C80.3195 78.1824 79.9423 78.0261 79.5579 78.0261Z" fill="#1C2D33"/>
<path d="M84.1349 47.1232C88.7965 47.1232 92.5888 43.3308 92.5888 38.6693C92.5888 34.0078 88.7965 30.2153 84.1349 30.2153C79.4733 30.2153 75.681 34.0077 75.681 38.6693C75.681 43.3308 79.4733 47.1232 84.1349 47.1232ZM84.1349 33.1391C87.1842 33.1391 89.6652 35.6199 89.6652 38.6694C89.6652 41.7189 87.1844 44.1997 84.1349 44.1997C81.0854 44.1997 78.6046 41.7189 78.6046 38.6694C78.6046 35.6199 81.0854 33.1391 84.1349 33.1391Z" fill="#1C2D33"/>
<path d="M69.8574 41.4107C70.6648 41.4107 71.3193 40.7562 71.3193 39.9488V28.4618C71.3193 27.6545 70.6648 27 69.8574 27C69.0501 27 68.3956 27.6545 68.3956 28.4618V39.9488C68.3956 40.7562 69.0501 41.4107 69.8574 41.4107Z" fill="#1C2D33"/>
<path d="M62.8407 36.3556C63.6481 36.3556 64.3025 35.7011 64.3025 34.8938V28.4618C64.3025 27.6545 63.6481 27 62.8407 27C62.0334 27 61.3789 27.6545 61.3789 28.4618V34.8938C61.3789 35.7011 62.0334 36.3556 62.8407 36.3556Z" fill="#1C2D33"/>
<path d="M43.9716 80.9497C44.356 80.9497 44.7332 80.7933 45.0051 80.5214C45.277 80.2495 45.4334 79.8724 45.4334 79.4879C45.4334 79.1035 45.277 78.7263 45.0051 78.4544C44.7332 78.1825 44.3575 78.0261 43.9716 78.0261C43.5871 78.0261 43.21 78.1825 42.9381 78.4544C42.6662 78.7263 42.5098 79.1035 42.5098 79.4879C42.5098 79.8724 42.6662 80.2495 42.9381 80.5214C43.21 80.7933 43.587 80.9497 43.9716 80.9497Z" fill="#1C2D33"/>
</g>
<defs>
<filter id="filter0_d" x="0" y="0" width="147" height="143" filterUnits="userSpaceOnUse" color-interpolation-filters="sRGB">
<feFlood flood-opacity="0" result="BackgroundImageFix"/>
<feColorMatrix in="SourceAlpha" type="matrix" values="0 0 0 0 0 0 0 0 0 0 0 0 0 0 0 0 0 0 127 0"/>
<feOffset dy="7"/>
<feGaussianBlur stdDeviation="10"/>
<feColorMatrix type="matrix" values="0 0 0 0 0.152941 0 0 0 0 0.341176 0 0 0 0 0.8 0 0 0 0.05 0"/>
<feBlend mode="normal" in2="BackgroundImageFix" result="effect1_dropShadow"/>
<feBlend mode="normal" in="SourceGraphic" in2="effect1_dropShadow" result="shape"/>
</filter>
<clipPath id="clip0">
<rect width="75" height="75" fill="white" transform="translate(36 27)"/>
</clipPath>
</defs>
</svg>
