<svg width="40" height="40" viewBox="0 0 40 40" fill="none" xmlns="http://www.w3.org/2000/svg">
<rect width="40" height="40" rx="7" fill="#2757CC"/>
<path d="M6 11.5294C6 9.58017 7.64948 8 9.68421 8H30.3158C32.3505 8 34 9.58017 34 11.5294C34 13.4787 32.3505 15.0588 30.3158 15.0588H9.68421C7.64948 15.0588 6 13.4787 6 11.5294Z" fill="white"/>
<path d="M17.0526 15.0588H24.4211V16.4706H17.0526V15.0588Z" fill="white"/>
<path d="M17.0526 28.4706C17.0526 30.4198 18.7021 32 20.7368 32H24.4211V17.8824H17.0526V28.4706Z" fill="white"/>
<path d="M17.0526 17.8824H26.2632C27.6875 17.8824 28.8421 18.9885 28.8421 20.3529C28.8421 21.7174 27.6875 22.8235 26.2632 22.8235H17.0526V17.8824Z" fill="white"/>
<path d="M17.0526 24.9412H30.3158C32.3505 24.9412 34 26.5213 34 28.4706C34 30.4198 32.3505 32 30.3158 32H20.7368C18.7021 32 17.0526 30.4198 17.0526 28.4706V24.9412Z" fill="white"/>
</svg>
